<?xml version="1.0" encoding="UTF-8" standalone="no"?>
<svg
   xmlns:dc="http://purl.org/dc/elements/1.1/"
   xmlns:cc="http://creativecommons.org/ns#"
   xmlns:rdf="http://www.w3.org/1999/02/22-rdf-syntax-ns#"
   xmlns:svg="http://www.w3.org/2000/svg"
   xmlns="http://www.w3.org/2000/svg"
   xmlns:sodipodi="http://sodipodi.sourceforge.net/DTD/sodipodi-0.dtd"
   xmlns:inkscape="http://www.inkscape.org/namespaces/inkscape"
   height="512"
   viewBox="0 0 512 512"
   width="512"
   version="1.1"
   id="svg96"
   sodipodi:docname="in-love.svg"
   inkscape:version="1.0 (4035a4fb49, 2020-05-01)">
  <metadata
     id="metadata102">
    <rdf:RDF>
      <cc:Work
         rdf:about="">
        <dc:format>image/svg+xml</dc:format>
        <dc:type
           rdf:resource="http://purl.org/dc/dcmitype/StillImage" />
      </cc:Work>
    </rdf:RDF>
  </metadata>
  <defs
     id="defs100" />
  <sodipodi:namedview
     inkscape:document-rotation="0"
     pagecolor="#ffffff"
     bordercolor="#666666"
     borderopacity="1"
     objecttolerance="10"
     gridtolerance="10"
     guidetolerance="10"
     inkscape:pageopacity="0"
     inkscape:pageshadow="2"
     inkscape:window-width="1920"
     inkscape:window-height="1001"
     id="namedview98"
     showgrid="false"
     inkscape:zoom="3.2260381"
     inkscape:cx="237.9342"
     inkscape:cy="433.40142"
     inkscape:window-x="-9"
     inkscape:window-y="-9"
     inkscape:window-maximized="1"
     inkscape:current-layer="flat" />
  <g
     id="flat">
    <path
       d="m179.411 87.117a48.58 48.58 0 0 1 38.864 19.432l12.091 16.122 12.092-16.122a48.58 48.58 0 0 1 38.864-19.432 48.58 48.58 0 0 1 47.13 36.8 59.417 59.417 0 0 1 -17.494 58.209l-80.592 73.874-80.592-73.876a59.416 59.416 0 0 1 -17.493-58.209 48.58 48.58 0 0 1 47.13-36.798z"
       fill="#cb2527"
       id="path57" />
    <path
       sodipodi:nodetypes="cccssccccccccc"
       d="M 114.505,216 68.674844,319.07007 C 62.982925,334.68017 83.392612,333.45624 90.505,328 v 72 c 0,13.25483 10.74517,24 24,24 h 48 v 55.84554 c -0.35588,11.4865 2.71426,7.5345 10.46258,8.15446 h 135.77025 c -6.06998,-0.13014 6.05419,1.7504 5.76643,-8.47779 L 314.505,376 l -56,-56 -8,-104 z"
       fill="#f6bb92"
       id="path59" />
    <path
       d="m250.505 216h96a277.849 277.849 0 0 1 -27.955 151.911l-4.045 8.089-64-64z"
       fill="#915628"
       id="path61" />
    <path
       sodipodi:nodetypes="ccccccc"
       d="M 346.505,216 400.26639,36.107561 403.773,24.374 418,35.666 c 32.1674,25.533304 45.5493,68.07816 33.79,107.428 -11.75932,39.35036 -46.29173,67.57668 -87.195,71.272 z"
       fill="#915628"
       id="path63" />
    <g
       fill="#7a4922"
       id="g73">
      <circle
         cx="162.505"
         cy="264"
         r="16"
         id="circle65" />
    </g>
    <g
       fill="#ffc864"
       id="g91" />
    <path
       d="m162.572 424h21.428l32-24-40 64h-13.428z"
       fill="#e6af89"
       id="path93" />
  </g>
</svg>
