<?xml version="1.0"?>
<svg xmlns="http://www.w3.org/2000/svg" viewBox="0 0 512 512" width="512" height="512"><g id="outline"><path d="M315.947,194.464,304,206.6l-11.946-12.133A35.068,35.068,0,0,0,232,219.577a35.567,35.567,0,0,0,10.253,25.113L298.3,301.613a8,8,0,0,0,11.4,0l56.047-56.923a35.668,35.668,0,0,0-24.9-60.69A35.174,35.174,0,0,0,315.947,194.464ZM360,219.577a19.931,19.931,0,0,1-5.653,13.887L304,284.6l-50.347-51.134A19.931,19.931,0,0,1,248,219.577,19.39,19.39,0,0,1,267.153,200a18.825,18.825,0,0,1,13.5,5.69L298.3,223.613a8,8,0,0,0,11.4,0l17.649-17.924a18.824,18.824,0,0,1,13.5-5.689A19.39,19.39,0,0,1,360,219.577Z"/><path d="M260.526,88A147.286,147.286,0,0,0,120.621,188.838L94.554,267.043A22,22,0,0,0,115.424,296H136v72a32.036,32.036,0,0,0,32,32h48v80a8,8,0,0,0,8,8H400a8,8,0,0,0,8-8V235.474C408,154.156,341.844,88,260.526,88ZM392,472H232V392a8,8,0,0,0-8-8H168a16.019,16.019,0,0,1-16-16V344h3.155a61.775,61.775,0,0,0,51.5-27.562,8,8,0,0,0-13.312-8.876A45.807,45.807,0,0,1,155.155,328H152V288a8,8,0,0,0-8-8H115.424a6,6,0,0,1-5.692-7.9L135.8,193.9A131.3,131.3,0,0,1,260.526,104C333.021,104,392,162.979,392,235.474Z"/><path d="M264,64V32a8,8,0,0,0-16,0V64a8,8,0,0,0,16,0Z"/><path d="M142.863,118.863a8,8,0,0,0,5.658-13.657L125.893,82.578a8,8,0,0,0-11.315,11.315l22.628,22.628A7.979,7.979,0,0,0,142.863,118.863Z"/><path d="M96,224a8,8,0,0,0-8-8H64a8,8,0,0,0,0,16H88A8,8,0,0,0,96,224Z"/><path d="M448,216H424a8,8,0,0,0,0,16h24a8,8,0,0,0,0-16Z"/><path d="M374.794,116.521l22.628-22.628a8,8,0,0,0-11.315-11.315l-22.628,22.628a8,8,0,0,0,11.315,11.315Z"/><path d="M197.47,224.41a68.319,68.319,0,0,1-42.94,0,8,8,0,0,0-5.06,15.18,84.421,84.421,0,0,0,53.06,0,8,8,0,0,0-5.06-15.18Z"/></g></svg>
