<?xml version="1.0" encoding="UTF-8" standalone="no"?>
<svg
   xmlns:dc="http://purl.org/dc/elements/1.1/"
   xmlns:cc="http://creativecommons.org/ns#"
   xmlns:rdf="http://www.w3.org/1999/02/22-rdf-syntax-ns#"
   xmlns:svg="http://www.w3.org/2000/svg"
   xmlns="http://www.w3.org/2000/svg"
   xmlns:sodipodi="http://sodipodi.sourceforge.net/DTD/sodipodi-0.dtd"
   xmlns:inkscape="http://www.inkscape.org/namespaces/inkscape"
   inkscape:version="1.0 (4035a4fb49, 2020-05-01)"
   sodipodi:docname="motivation.svg"
   version="1.1"
   width="512"
   viewBox="0 0 512 512"
   height="512"
   enable-background="new 0 0 512 512"
   id="Capa_1">
  <metadata
     id="metadata1338">
    <rdf:RDF>
      <cc:Work
         rdf:about="">
        <dc:format>image/svg+xml</dc:format>
        <dc:type
           rdf:resource="http://purl.org/dc/dcmitype/StillImage" />
      </cc:Work>
    </rdf:RDF>
  </metadata>
  <defs
     id="defs1336" />
  <sodipodi:namedview
     inkscape:current-layer="g1327"
     inkscape:window-maximized="1"
     inkscape:window-y="-9"
     inkscape:window-x="-9"
     inkscape:cy="211.4505"
     inkscape:cx="256"
     inkscape:zoom="1.1476306"
     showgrid="false"
     id="namedview1334"
     inkscape:window-height="1001"
     inkscape:window-width="1920"
     inkscape:pageshadow="2"
     inkscape:pageopacity="0"
     guidetolerance="10"
     gridtolerance="10"
     objecttolerance="10"
     borderopacity="1"
     bordercolor="#666666"
     pagecolor="#ffffff" />
  <g
     id="g1331">
    <g
       id="g1329">
      <g
         id="g1327">
        <g
           transform="rotate(-45.067699,255.99965,255.99902)"
           id="g1309">
          <g
             id="g1307">
            <path
               style="fill:#d08c7e;fill-opacity:1"
               id="path1275"
               fill="#c86f5c"
               d="m 294.979,147.163 38.776,106.272 172.548,172.547 c 4.077,4.077 4.102,10.688 0.047,14.787 -22.556,22.799 -45.301,45.411 -67.928,68.14 -4.091,4.109 -10.736,4.121 -14.836,0.021 L 249.67,335.017 H 227.262 V 146.942 l -25.455,-25.359 c -10.682,-10.642 -10.698,-27.933 -0.036,-38.595 10.648,-10.648 27.911,-10.648 38.559,0 l 37.889,37.889 c 7.435,7.436 13.156,16.407 16.76,26.286 z" />
            <path
               style="fill:#cc796c;fill-opacity:1"
               sodipodi:nodetypes="sccccsccscccccccsssccs"
               id="path1277"
               fill="#ba5d4f"
               d="M 506.259,425.943 333.758,253.442 294.974,147.163 C 291.372,137.28 285.66,128.31 278.219,120.881 L 240.336,82.986 c -5.332,-5.32 -12.3,-7.975 -19.279,-7.975 -6.979,0 -13.959,2.654 -19.279,7.975 -4.965,4.965 -7.607,11.364 -7.939,17.857 0.474,-0.036 1.48116,-10.710234 1.95516,-10.710234 6.979,0 21.42327,-8.009234 30.4754,5.321191 l 40.02764,36.283513 c 7.43,7.441 16.88514,25.47575 20.48714,35.34575 L 307.974,279.227 l 26.77,26.77 c -18.989,19.037 -37.988,38.064 -57.01,57.078 l 102.58071,102.58171 c 10.878,-8.544 15.73635,-20.20352 15.73635,-35.06352 V 348.1377 c 0,-11.618 27.31135,22.08316 35.59104,30.23296 l 67.97246,66.90614 6.64444,-4.5118 c 4.093,-4.092 4.093,-10.729 0,-14.822 z" />
            <path
               style="fill:#ffd4a8;fill-opacity:1"
               id="path1279"
               fill="#ffcec0"
               d="m 455.342,298 -45.581,-45.581 c -7.436,-7.436 -16.407,-13.156 -26.286,-16.761 L 278.362,197.305 c -0.763,-0.278 -1.451,-0.73 -2.009,-1.32 L 93.866,3.28 C 89.806,-1.007 83.004,-1.094 78.829,3.081 53.719,28.191 30.821,51.088 5.698,76.211 1.605,80.304 1.595,86.942 5.688,91.035 c 33.784,33.784 172.304,172.304 188.403,188.404 0.983,0.983 1.529,2.309 1.529,3.699 v 100.43 c 0,12.412 9.652,22.984 22.056,23.424 13.023,0.463 23.725,-9.957 23.725,-22.876 v 24.604 c 0,12.642 10.248,22.891 22.891,22.891 12.642,0 22.891,-10.248 22.891,-22.891 v 11.737 c 0,12.412 9.652,22.983 22.056,23.424 13.023,0.463 23.725,-9.956 23.725,-22.876 v 12.253 c 0,12.642 10.248,22.89 22.89,22.89 12.642,0 22.891,-10.248 22.891,-22.891 V 311.094 c 0,-4.671 5.65,-7.008 8.949,-3.702 l 29.076,29.129 c 10.529,10.558 27.587,10.695 38.285,0.308 10.913,-10.596 11.042,-28.073 0.287,-38.829 z" />
            <path
               style="fill:#ffbd92;fill-opacity:1"
               sodipodi:nodetypes="sccscccccccccccsss"
               id="path1281"
               fill="#fdb0a0"
               d="m 463.323,317.274 c 0,7.11 -2.759,14.21 -8.266,19.559 -4.183,4.06 -12.40112,6.13361 -17.76212,6.97461 6.72464,-3.32495 14.07628,-7.65928 16.01501,-15.37333 1.86645,-7.42645 -4.18756,-17.7649 -9.51456,-23.0919 l -49.39991,-45.587 c -7.436,-7.436 -14.87844,-9.3321 -24.75944,-12.9321 L 269.49006,211.14102 c 0,0 -2.67673,-2.29435 -4.68573,-3.61435 L 73.078012,10.066723 78.842,3.07 c 4.172,-4.172 10.965,-4.08 15.022,0.205 l 182.484,192.71 c 0.558,0.59 1.246,1.041 2.009,1.32 l 105.117,38.359 c 9.881,3.6 18.853,9.32 26.289,16.756 l 45.576,45.576 c 5.326,5.326 7.984,12.302 7.984,19.278 z" />
            <g
               style="fill:#c86f5c;fill-opacity:1"
               id="g1287">
              <path
                 style="fill:#d08c7e;fill-opacity:1"
                 id="path1283"
                 fill="#f69583"
                 d="m 141.734,294.444 c 0,12.642 10.248,22.891 22.891,22.891 h 27.946 c 12.642,0 22.891,-10.248 22.891,-22.891 0,-12.642 -10.248,-22.89 -22.891,-22.89 h -27.946 c -12.643,-10e-4 -22.891,10.248 -22.891,22.89 z" />
            </g>
            <g
               style="fill:#c86f5c;fill-opacity:1"
               id="g1293">
              <path
                 style="fill:#d08c7e;fill-opacity:1"
                 id="path1289"
                 fill="#fdb0a0"
                 d="m 104.861,248.663 c 0,12.642 10.248,22.891 22.891,22.891 h 46.676 c 12.642,0 22.89,-10.248 22.89,-22.891 0,-12.642 -10.248,-22.891 -22.89,-22.891 h -46.676 c -12.643,0 -22.891,10.249 -22.891,22.891 z" />
            </g>
            <g
               style="fill:#c86f5c;fill-opacity:1"
               id="g1299">
              <path
                 style="fill:#d08c7e;fill-opacity:1"
                 id="path1295"
                 fill="#f69583"
                 d="m 77.616,202.882 c 0,12.642 10.248,22.891 22.891,22.891 h 47.215 c 12.642,0 22.891,-10.248 22.891,-22.89 0,-12.642 -10.248,-22.891 -22.891,-22.891 h -47.215 c -12.643,-10e-4 -22.891,10.248 -22.891,22.89 z" />
            </g>
            <g
               id="g1305">
              <path
                 style="fill:#d08c7e;fill-opacity:1"
                 id="path1301"
                 fill="#fdb0a0"
                 d="m 46.918,157.101 c 0,12.642 10.248,22.891 22.891,22.891 h 35.974 c 12.642,0 22.891,-10.248 22.891,-22.891 0,-12.642 -10.248,-22.891 -22.891,-22.891 H 69.809 c -12.642,0 -22.891,10.248 -22.891,22.891 z" />
              <path
                 style="fill:#cc796c;fill-opacity:1"
                 sodipodi:nodetypes="ssccscs"
                 id="path1303"
                 fill="#f9a08f"
                 d="m 128.679,157.102 c 0,12.644 -10.25,22.893 -22.893,22.893 h -26.33 c 50.20258,-6.09885 37.0992,-44.76486 -0.001,-45.787 h 26.33 c 6.316,0 12.051,2.559 16.187,6.707 4.148,4.147 6.707,9.859 6.707,16.187 z" />
              <path
                 style="fill:#cc796c;fill-opacity:1"
                 d="m 170.69831,203.13511 c 0,12.644 -10.25,22.893 -22.893,22.893 h -26.33 c 50.20258,-6.09885 37.0992,-44.76486 -10e-4,-45.787 h 26.33 c 6.316,0 12.051,2.559 16.187,6.707 4.148,4.147 6.707,9.859 6.707,16.187 z"
                 fill="#f9a08f"
                 id="path1303-5"
                 sodipodi:nodetypes="ssccscs" />
              <path
                 style="fill:#cc796c;fill-opacity:1"
                 d="m 197.35639,248.98702 c 0,12.644 -10.25,22.893 -22.893,22.893 h -26.33 c 50.20258,-6.09885 37.0992,-44.76486 -0.001,-45.787 h 26.33 c 6.316,0 12.051,2.559 16.187,6.707 4.148,4.147 6.707,9.859 6.707,16.187 z"
                 fill="#f9a08f"
                 id="path1303-0"
                 sodipodi:nodetypes="ssccscs" />
              <path
                 style="fill:#cc796c;fill-opacity:1"
                 d="m 217.08338,294.30576 c 0,12.644 -10.25,22.893 -22.893,22.893 h -26.33 c 50.20258,-6.09885 37.0992,-44.76486 -0.001,-45.787 h 26.33 c 6.316,0 12.051,2.559 16.187,6.707 4.148,4.147 6.707,9.859 6.707,16.187 z"
                 fill="#f9a08f"
                 id="path1303-1"
                 sodipodi:nodetypes="ssccscs" />
            </g>
          </g>
        </g>
        <g
           transform="rotate(-45.067699,255.99965,255.99902)"
           id="g1313">
          <path
             style="fill:#ffbd92;fill-opacity:1"
             sodipodi:nodetypes="sscscs"
             id="path1311"
             fill="#fdb0a0"
             d="m 241.398,358.726 v 25.396 c 0,10.135 -2.32771,16.06319 -11.45671,19.06119 l 1.06633,-44.45719 c 0.10404,-4.33775 -1.80962,-7.861 2.52938,-7.861 4.35,10e-4 7.861,3.522 7.861,7.861 z" />
        </g>
        <g
           transform="rotate(-45.067699,255.99965,255.99902)"
           id="g1317">
          <path
             style="fill:#ffbd92;fill-opacity:1"
             sodipodi:nodetypes="ssscscs"
             id="path1315"
             fill="#fdb0a0"
             d="m 287.18,370.098 v 38.623 c 0,6.32 -2.557,12.043 -6.697,16.183 -2.505,2.505 -1.85387,2.83351 -5.29187,3.95551 l 0.53317,-59.29367 c 0.039,-4.33883 -0.7433,-7.32784 3.5957,-7.32784 4.348,-10e-4 7.86,3.521 7.86,7.86 z" />
        </g>
        <g
           transform="rotate(-45.067699,255.99965,255.99902)"
           id="g1321">
          <path
             style="fill:#ffbd92;fill-opacity:1"
             sodipodi:nodetypes="csssccc"
             id="path1319"
             fill="#fdb0a0"
             d="m 387.693,307.39 c -3.301,-3.302 -8.951,-0.964 -8.951,3.7 v 122.167 c 0,6.32 1.17513,8.84403 -2.96487,12.98403 -2.505,2.505 -2.92019,3.88984 -6.35819,5.02184 L 368.88578,317.50584 C 368.88478,304.56684 378.42,298.572 387.693,307.39 Z" />
        </g>
        <g
           transform="rotate(-45.067699,255.99965,255.99902)"
           id="g1325">
          <path
             style="fill:#ffbd92;fill-opacity:1"
             sodipodi:nodetypes="sscsss"
             id="path1323"
             fill="#fdb0a0"
             d="m 332.961,385.82 v 35.185 c 0,10.146 -4.46035,14.4747 -10.92354,19.07219 V 385.82 c 0,-4.35 -1.27646,-7.861 3.06254,-7.861 4.35,0 7.861,3.511 7.861,7.861 z" />
        </g>
      </g>
    </g>
  </g>
</svg>
