<svg id="Capa_1" enable-background="new 0 0 512 512" height="512" viewBox="0 0 512 512" width="512" xmlns="http://www.w3.org/2000/svg"><g><path d="m10 141.122h23.42v98.168c0 5.522 4.478 10 10 10h50.059c5.522 0 10-4.478 10-10v-98.168h23.448c3.735 0 7.159-2.082 8.878-5.398 1.72-3.316 1.446-7.314-.707-10.366l-58.478-82.884c-1.874-2.656-4.922-4.235-8.172-4.235-3.251 0-6.298 1.58-8.171 4.237l-58.449 82.883c-2.153 3.052-2.425 7.05-.706 10.365 1.719 3.317 5.143 5.398 8.878 5.398zm58.451-75.535 39.182 55.535h-14.154c-5.522 0-10 4.478-10 10v98.168h-30.059v-98.168c0-5.522-4.478-10-10-10h-14.132z"/><path d="m135.805 405.719c1.72-3.316 1.446-7.314-.707-10.366l-58.478-82.884c-1.874-2.656-4.922-4.235-8.172-4.235-3.251 0-6.298 1.58-8.171 4.237l-58.449 82.884c-2.153 3.052-2.425 7.05-.706 10.365 1.719 3.316 5.143 5.397 8.878 5.397h23.42v68.178c0 5.522 4.478 10 10 10h50.059c5.522 0 10-4.478 10-10v-68.178h23.448c3.735 0 7.159-2.082 8.878-5.398zm-42.326-14.602c-5.522 0-10 4.478-10 10v68.178h-30.059v-68.178c0-5.522-4.478-10-10-10h-14.132l39.163-55.535 39.182 55.535z"/><path d="m350.633 155.987c-5.549 0-10.787 1.343-15.419 3.708-4.435-15.712-18.889-27.264-36.001-27.264-10.818 0-20.573 4.621-27.41 11.987-6.837-7.366-16.592-11.987-27.41-11.987-10.819 0-20.574 4.621-27.411 11.987-6.837-7.366-16.592-11.987-27.41-11.987-20.628 0-37.41 16.782-37.41 37.411v30.364h-.092c-13.626 0-24.711 11.099-24.711 24.74v97.34c0 17.095 7.747 32.841 21.813 44.338 12.283 10.037 12.091 14.611 11.165 36.594-.21 5.008-.459 10.982-.56 17.859-15.13.585-27.259 13.069-27.259 28.34v34.186c0 15.658 12.726 28.397 28.368 28.397h188.67c15.643 0 28.368-12.738 28.368-28.397v-34.186c0-15.255-12.104-27.729-27.212-28.339v-1.084c0-5.931-.148-11.314-.28-16.064-.615-22.267-.326-29.035 10.179-36.886 15.254-11.468 24.003-28.267 24.003-46.09v-68.626-28.686-33.676c-.001-18.735-15.244-33.979-33.981-33.979zm-68.83 13.856c0-9.601 7.811-17.411 17.41-17.411 9.601 0 17.411 7.811 17.411 17.411v20.125 72.424c0 9.601-7.811 17.411-17.411 17.411s-17.41-7.811-17.41-17.411zm-54.822 0c0-9.601 7.811-17.411 17.411-17.411s17.41 7.811 17.41 17.411v32.083c-7.766-1.713-17.667-1.719-29.883-1.719h-4.938zm-54.82 0c0-9.601 7.811-17.411 17.41-17.411s17.41 7.811 17.41 17.411v30.364h-34.82zm185.763 279.575v34.186c0 4.63-3.754 8.396-8.368 8.396h-188.67c-4.536 0-8.368-3.845-8.368-8.396v-34.186c0-4.536 3.832-8.368 8.368-8.368h188.67c4.536 0 8.368 3.832 8.368 8.368zm6.689-128.463c0 11.646-5.689 22.337-15.998 30.086-19.255 14.39-18.802 30.771-18.176 53.441.128 4.621.272 9.858.272 15.513v1.055h-150.933c.098-6.401.33-11.956.542-16.99.992-23.57 1.538-36.554-18.491-52.921-9.331-7.626-14.47-17.872-14.47-28.852v-97.34c0-2.569 2.157-4.74 4.711-4.74h79.851c12.003 0 21.483 0 26.849 1.563 2.734.797 3.034.99 3.034 4.141 0 24.683-27.881 28.82-44.501 29.09-.031.001-.063.002-.094.002-1.349.019-17.512.025-28.118.025-.173 0-.325.008-.458.023-5.309.241-9.542 4.609-9.542 9.977 0 5.128 3.862 9.349 8.835 9.927.029.052.373.073 1.165.073 17.949 0 33.113 21.901 33.113 47.825 0 5.522 4.478 10 10 10s10-4.478 10-10c0-17.589-5.188-34.234-14.611-46.87-.37-.495-.754-.965-1.133-1.445 14.377-1.26 26.313-5.026 35.374-10.975.623 20.087 17.146 36.239 37.38 36.239 14.005 0 26.229-7.74 32.641-19.162 5.385 3.578 11.841 5.668 18.779 5.668 4.982 0 9.713-1.087 13.98-3.021v37.668zm0-68.626c0 7.709-6.271 13.98-13.98 13.98-7.725 0-14.009-6.271-14.009-13.98v-62.361c0-7.709 6.284-13.98 14.009-13.98 7.709 0 13.98 6.271 13.98 13.98z"/><path d="m510.171 87.119-58.478-82.884c-1.874-2.656-4.921-4.235-8.171-4.235s-6.297 1.579-8.171 4.235l-58.478 82.884c-2.153 3.052-2.427 7.05-.707 10.366 1.719 3.316 5.143 5.398 8.878 5.398h23.448v188.167c0 5.522 4.478 10 10 10h50.059c5.522 0 10-4.478 10-10v-54.226c0-5.522-4.478-10-10-10s-10 4.478-10 10v44.226h-30.059v-188.166c0-5.522-4.478-10-10-10h-14.154l39.184-55.538 39.184 55.538h-14.154c-5.522 0-10 4.478-10 10v54.141c0 5.522 4.478 10 10 10s10-4.478 10-10v-44.141h23.448c3.735 0 7.159-2.082 8.878-5.398 1.72-3.317 1.446-7.315-.707-10.367z"/><path d="m468.552 181.924c-5.522 0-10 4.478-10 10v.028c0 5.522 4.478 9.986 10 9.986s10-4.492 10-10.015-4.478-9.999-10-9.999z"/></g></svg>