<svg xmlns="http://www.w3.org/2000/svg" xmlns:xlink="http://www.w3.org/1999/xlink" xmlns:fi="http://pattern.flaticon.com/" x="0" y="0" width="400" height="400" viewBox="0 0 350 350"><rect x="0px" y="0px" width="100%" height="100%" opacity="1" fill="#0c486c"/><defs><g transform="matrix(0.05871368011035928 -0.02818256726675107 0.02818256726675107 0.05871368011035928 51.75456067145975 158.1840351120363)" id="L1_4"><path d="m420.879 0h-319.343c-14.888 0-27 12.112-27 27v37.821h-16.065c-8.284 0-15 6.716-15 15s6.716 15 15 15h16.065v58.089h-16.065c-8.284 0-15 6.716-15 15s6.716 15 15 15h16.065v58.09h-16.065c-8.284 0-15 6.716-15 15s6.716 15 15 15h16.065v58.09h-16.065c-8.284 0-15 6.716-15 15s6.716 15 15 15h16.065v58.089h-16.065c-8.284 0-15 6.716-15 15s6.716 15 15 15h16.065v37.821c0 14.888 12.112 27 27 27h319.343c26.274 0 47.65-21.375 47.65-47.65v-416.7c0-26.275-21.375-47.65-47.65-47.65zm17.65 464.35c0 9.732-7.917 17.65-17.65 17.65h-316.343v-34.821h16.065c8.284 0 15-6.716 15-15s-6.716-15-15-15h-16.065v-58.089h16.065c8.284 0 15-6.716 15-15s-6.716-15-15-15h-16.065v-58.09h16.065c8.284 0 15-6.716 15-15s-6.716-15-15-15h-16.065v-58.09h16.065c8.284 0 15-6.716 15-15s-6.716-15-15-15h-16.065v-58.089h16.065c8.284 0 15-6.716 15-15s-6.716-15-15-15h-16.065v-34.821h316.343c9.732 0 17.65 7.917 17.65 17.65z" fill="#fcf8de"/><path d="m378.563 417.179h-71.554c-8.284 0-15 6.716-15 15s6.716 15 15 15h71.554c8.284 0 15-6.716 15-15s-6.716-15-15-15z" fill="#fcf8de"/><path d="m378.563 64.821h-183.356c-8.284 0-15 6.716-15 15v81.392c0 8.284 6.716 15 15 15h183.356c8.284 0 15-6.716 15-15v-81.392c0-8.284-6.716-15-15-15zm-15 81.392h-153.356v-51.392h153.356z" fill="#fcf8de"/></g><g transform="matrix(1.25039325512812 0.5954253465227849 -0.5954253465227849 1.25039325512812 120.82798341051802 100.99903311681985)" id="L1_10"><path d="m13.5 24h-3c-.7 0-1.5-.6-1.5-1.8v-2.1c0-1-.5-1.9-1.3-2.6-1.8-1.4-2.7-3.4-2.7-5.6.1-3.8 3.2-6.8 6.9-6.9 1.9 0 3.7.7 5 2s2.1 3.1 2.1 5c0 2.1-.9 4.1-2.6 5.4-.9.7-1.4 1.8-1.4 2.8v2.3c0 .8-.7 1.5-1.5 1.5zm-1.5-18c-3.2 0-5.9 2.7-6 5.9 0 1.9.8 3.7 2.3 4.8 1.1.9 1.7 2.1 1.7 3.4v2.1c0 .2 0 .8.5.8h3c.3 0 .5-.2.5-.5v-2.3c0-1.3.7-2.7 1.8-3.6 1.4-1.1 2.2-2.8 2.2-4.6 0-1.6-.6-3.1-1.8-4.3-1.1-1.1-2.6-1.7-4.2-1.7z" fill="#fcf8de"/><path d="m14.5 21h-5c-.3 0-.5-.2-.5-.5s.2-.5.5-.5h5c.3 0 .5.2.5.5s-.2.5-.5.5z" fill="#fcf8de"/><path d="m12 3c-.3 0-.5-.2-.5-.5v-2c0-.3.2-.5.5-.5s.5.2.5.5v2c0 .3-.2.5-.5.5z" fill="#fcf8de"/><path d="m18.7 5.8c-.1 0-.3 0-.4-.1-.2-.2-.2-.5 0-.7l1.4-1.4c.2-.2.5-.2.7 0s.2.5 0 .7l-1.4 1.4s-.2.1-.3.1z" fill="#fcf8de"/><path d="m23.5 12.5h-2c-.3 0-.5-.2-.5-.5s.2-.5.5-.5h2c.3 0 .5.2.5.5s-.2.5-.5.5z" fill="#fcf8de"/><path d="m20.1 20.6c-.1 0-.3 0-.4-.1l-1.4-1.4c-.2-.2-.2-.5 0-.7s.5-.2.7 0l1.4 1.4c.2.2.2.5 0 .7 0 .1-.1.1-.3.1z" fill="#fcf8de"/><path d="m3.9 20.6c-.1 0-.3 0-.4-.1-.2-.2-.2-.5 0-.7l1.4-1.4c.2-.2.5-.2.7 0s.2.5 0 .7l-1.4 1.4c-.1.1-.2.1-.3.1z" fill="#fcf8de"/><path d="m2.5 12.5h-2c-.3 0-.5-.2-.5-.5s.2-.5.5-.5h2c.3 0 .5.2.5.5s-.2.5-.5.5z" fill="#fcf8de"/><path d="m5.3 5.8c-.1 0-.3 0-.4-.1l-1.4-1.5c-.2-.2-.2-.5 0-.7s.5-.2.7 0l1.4 1.4c.2.2.2.5 0 .7-.1.1-.2.2-.3.2z" fill="#fcf8de"/><path d="m16 12.5c-.3 0-.5-.2-.5-.5 0-1.9-1.6-3.5-3.5-3.5-.3 0-.5-.2-.5-.5s.2-.5.5-.5c2.5 0 4.5 2 4.5 4.5 0 .3-.2.5-.5.5z" fill="#fcf8de"/></g><g transform="matrix(0.05677882103902182 -0.012617515714616336 0.012617515714616336 0.05677882103902182 237.6687371856402 11.620812150301099)" id="L1_12"><path d="M188.885,67.36C147.84,26.336,67.52,21.579,10.667,21.579C4.779,21.579,0,26.357,0,32.245    c0,56.853,4.736,137.173,45.781,178.219c17.323,17.323,43.883,25.067,70.208,25.067c28.608,0,56.96-9.152,72.896-25.088    C219.456,179.872,225.067,103.52,188.885,67.36z M173.803,195.381c-22.827,22.805-86.208,26.709-112.917,0    C27.755,162.251,22.016,94.944,21.397,42.976c51.968,0.619,119.275,6.357,152.405,39.488    C200.512,109.173,196.608,172.576,173.803,195.381z" fill="#fcf8de"/><path d="M459.157,63.776c-56.853,0-137.173,4.736-178.219,45.781c-36.181,36.16-30.571,112.512,0,143.083    c15.936,15.915,44.267,25.067,72.875,25.067c26.325,0,52.864-7.723,70.229-25.045c41.024-41.045,45.781-121.365,45.781-178.219    C469.824,68.555,465.045,63.776,459.157,63.776z M408.917,237.557c-26.709,26.709-90.112,22.805-112.917,0    c-22.805-22.805-26.709-86.208,0-112.917c33.131-33.131,100.437-38.869,152.405-39.488    C447.787,137.141,442.048,204.448,408.917,237.557z" fill="#fcf8de"/><path d="M382.123,156.107c-2.517-5.355-9.728-7.189-15.04-4.715c-81.813,38.464-122.005,105.536-140.267,174.485    c-22.592-146.603-87.936-191.296-115.648-210.261c-3.456-2.368-6.144-4.096-7.637-5.568c-4.16-4.16-10.923-4.16-15.083,0    c-4.16,4.16-4.16,10.923,0,15.083c2.112,2.091,5.76,4.715,10.688,8.085c31.232,21.355,114.197,78.123,114.197,304.363    c0,5.888,4.779,10.667,10.667,10.667s10.667-4.779,10.667-10.645c0-91.413,24.555-211.925,141.504-266.88    c0-0.021,1.728-0.832,1.728-0.832C383.211,167.371,384.64,161.44,382.123,156.107z" fill="#fcf8de"/></g><path d="M456.836,76.168l-64-64.054c-16.125-16.139-44.177-16.17-60.365,0.031L45.763,301.682    c-1.271,1.282-2.188,2.857-2.688,4.587L0.409,455.73c-1.063,3.722-0.021,7.736,2.719,10.478c2.031,2.033,4.75,3.128,7.542,3.128    c0.979,0,1.969-0.136,2.927-0.407l149.333-42.703c1.729-0.5,3.302-1.418,4.583-2.69l289.323-286.983    c8.063-8.069,12.5-18.787,12.5-30.192S464.899,84.237,456.836,76.168z M285.989,89.737l39.264,39.264L120.257,333.998    l-14.712-29.434c-1.813-3.615-5.5-5.896-9.542-5.896H78.921L285.989,89.737z M26.201,443.137L40.095,394.5l34.742,34.742    L26.201,443.137z M149.336,407.96l-51.035,14.579l-51.503-51.503l14.579-51.035h28.031l18.385,36.771    c1.031,2.063,2.708,3.74,4.771,4.771l36.771,18.385V407.96z M170.67,390.417v-17.082c0-4.042-2.281-7.729-5.896-9.542    l-29.434-14.712l204.996-204.996l39.264,39.264L170.67,390.417z M441.784,121.72l-47.033,46.613l-93.747-93.747l46.582-47.001    c8.063-8.063,22.104-8.063,30.167,0l64,64c4.031,4.031,6.25,9.385,6.25,15.083S445.784,117.72,441.784,121.72z" transform="matrix(0.06935375568825852 -0.02713842664910883 0.02713842664910883 0.06935375568825852 214.3511045665815 96.07902666501356)" id="L1_13" fill="#fcf8de"/><path d="m256 455.515625c-7.289062 0-14.316406-2.640625-19.792969-7.4375-20.683593-18.085937-40.625-35.082031-58.21875-50.074219l-.089843-.078125c-51.582032-43.957031-96.125-81.917969-127.117188-119.3125-34.644531-41.804687-50.78125-81.441406-50.78125-124.742187 0-42.070313 14.425781-80.882813 40.617188-109.292969 26.503906-28.746094 62.871093-44.578125 102.414062-44.578125 29.554688 0 56.621094 9.34375 80.445312 27.769531 12.023438 9.300781 22.921876 20.683594 32.523438 33.960938 9.605469-13.277344 20.5-24.660157 32.527344-33.960938 23.824218-18.425781 50.890625-27.769531 80.445312-27.769531 39.539063 0 75.910156 15.832031 102.414063 44.578125 26.191406 28.410156 40.613281 67.222656 40.613281 109.292969 0 43.300781-16.132812 82.9375-50.777344 124.738281-30.992187 37.398437-75.53125 75.355469-127.105468 119.308594-17.625 15.015625-37.597657 32.039062-58.328126 50.167969-5.472656 4.789062-12.503906 7.429687-19.789062 7.429687zm-112.96875-425.523437c-31.066406 0-59.605469 12.398437-80.367188 34.914062-21.070312 22.855469-32.675781 54.449219-32.675781 88.964844 0 36.417968 13.535157 68.988281 43.882813 105.605468 29.332031 35.394532 72.960937 72.574219 123.476562 115.625l.09375.078126c17.660156 15.050781 37.679688 32.113281 58.515625 50.332031 20.960938-18.253907 41.011719-35.34375 58.707031-50.417969 50.511719-43.050781 94.136719-80.222656 123.46875-115.617188 30.34375-36.617187 43.878907-69.1875 43.878907-105.605468 0-34.515625-11.605469-66.109375-32.675781-88.964844-20.757813-22.515625-49.300782-34.914062-80.363282-34.914062-22.757812 0-43.652344 7.234374-62.101562 21.5-16.441406 12.71875-27.894532 28.796874-34.609375 40.046874-3.453125 5.785157-9.53125 9.238282-16.261719 9.238282s-12.808594-3.453125-16.261719-9.238282c-6.710937-11.25-18.164062-27.328124-34.609375-40.046874-18.449218-14.265626-39.34375-21.5-62.097656-21.5zm0 0" transform="matrix(0.040857914820592436 -0.0204289581727774 0.0204289581727774 0.040857914820592436 167.88745985303495 262.6144200369592)" id="L1_14" fill="#fcf8de"/><g transform="matrix(0.032032042141832764 0.032032042141832764 -0.032032042141832764 0.032032042141832764 229 150.59959442338163)" id="L1_15"><path d="M472.208,201.712c9.271-9.037,12.544-22.3,8.544-34.613c-4.001-12.313-14.445-21.118-27.257-22.979l-112.03-16.279    c-2.199-0.319-4.1-1.7-5.084-3.694L286.28,22.632c-5.729-11.61-17.331-18.822-30.278-18.822c-12.947,0-24.549,7.212-30.278,18.822    l-50.101,101.516c-0.985,1.993-2.885,3.374-5.085,3.694L58.51,144.12c-12.812,1.861-23.255,10.666-27.257,22.979    c-4.002,12.313-0.728,25.576,8.544,34.613l81.065,79.019c1.591,1.552,2.318,3.787,1.942,5.978l-19.137,111.576    c-2.188,12.761,2.958,25.414,13.432,33.024c10.474,7.612,24.102,8.595,35.56,2.572l100.201-52.679    c1.968-1.035,4.317-1.035,6.286,0l100.202,52.679c4.984,2.62,10.377,3.915,15.744,3.914c6.97,0,13.896-2.184,19.813-6.487    c10.474-7.611,15.621-20.265,13.432-33.024l-19.137-111.576c-0.375-2.191,0.351-4.426,1.942-5.978L472.208,201.712z     M362.579,291.276l19.137,111.578c0.64,3.734-1.665,5.863-2.686,6.604c-1.022,0.74-3.76,2.277-7.112,0.513l-100.202-52.679    c-4.919-2.585-10.315-3.879-15.712-3.879c-5.397,0-10.794,1.294-15.712,3.878l-100.201,52.678    c-3.354,1.763-6.091,0.228-7.112-0.513c-1.021-0.741-3.327-2.87-2.686-6.604l19.137-111.576    c1.879-10.955-1.75-22.127-9.711-29.886l-81.065-79.019c-2.713-2.646-2.099-5.723-1.708-6.923    c0.389-1.201,1.702-4.052,5.451-4.596l112.027-16.279c10.999-1.598,20.504-8.502,25.424-18.471l50.101-101.516    c1.677-3.397,4.793-3.764,6.056-3.764c1.261,0,4.377,0.366,6.055,3.764v0.001l50.101,101.516    c4.919,9.969,14.423,16.873,25.422,18.471l112.029,16.279c3.749,0.544,5.061,3.395,5.451,4.596    c0.39,1.201,1.005,4.279-1.709,6.923l-81.065,79.019C364.329,269.149,360.7,280.321,362.579,291.276z" fill="#fcf8de"/><path d="M413.783,22.625c-6.036-4.384-14.481-3.046-18.865,2.988l-14.337,19.732c-4.384,6.034-3.047,14.481,2.988,18.865    c2.399,1.741,5.176,2.58,7.928,2.58c4.177,0,8.295-1.931,10.937-5.567l14.337-19.732    C421.155,35.456,419.818,27.009,413.783,22.625z" fill="#fcf8de"/><path d="M131.36,45.265l-14.337-19.732c-4.383-6.032-12.829-7.37-18.865-2.988c-6.034,4.384-7.372,12.831-2.988,18.865    l14.337,19.732c2.643,3.639,6.761,5.569,10.939,5.569c2.753,0,5.531-0.839,7.927-2.581C134.407,59.747,135.745,51.3,131.36,45.265    z" fill="#fcf8de"/><path d="M49.552,306.829c-2.305-7.093-9.924-10.976-17.019-8.671l-23.197,7.538c-7.095,2.305-10.976,9.926-8.671,17.019    c1.854,5.709,7.149,9.337,12.842,9.337c1.383,0,2.79-0.215,4.177-0.666l23.197-7.538    C47.975,321.543,51.857,313.924,49.552,306.829z" fill="#fcf8de"/><path d="M256.005,456.786c-7.459,0-13.506,6.047-13.506,13.506v24.392c0,7.459,6.047,13.506,13.506,13.506    c7.459,0,13.506-6.047,13.506-13.506v-24.392C269.511,462.832,263.465,456.786,256.005,456.786z" fill="#fcf8de"/><path d="M502.664,305.715l-23.197-7.538c-7.092-2.303-14.714,1.577-17.019,8.672c-2.305,7.095,1.576,14.714,8.671,17.019    l23.197,7.538c1.387,0.45,2.793,0.664,4.176,0.664c5.694,0,10.989-3.629,12.843-9.337    C513.64,315.639,509.758,308.02,502.664,305.715z" fill="#fcf8de"/></g><path d="M438.957,19.477H73.043C32.766,19.477,0,52.244,0,92.52v246.961c0,40.276,32.766,73.043,73.043,73.043h28.663    l0.561,64.483c0.05,5.943,3.463,11.344,8.809,13.942c2.173,1.056,4.512,1.575,6.84,1.575c3.399,0,6.773-1.106,9.565-3.262    l99.425-76.738h212.051c40.277,0,73.043-32.767,73.043-73.043V92.52C512,52.244,479.234,19.477,438.957,19.477z M480.696,339.482    c0,23.015-18.724,41.739-41.739,41.739H221.569c-3.46,0-6.823,1.147-9.563,3.261l-78.711,60.75l-0.422-48.495    c-0.074-8.591-7.06-15.516-15.651-15.516H73.043c-23.015,0-41.739-18.724-41.739-41.739V92.52    c0-23.015,18.724-41.739,41.739-41.739h365.915c23.015,0,41.739,18.724,41.739,41.739V339.482z" transform="matrix(0.04877504442797546 0.02869120344670254 -0.02869120344670254 0.04877504442797546 287.85854937327053 175.16867898151398)" id="L1_16" fill="#fcf8de"/><g transform="matrix(0.055097501477077086 0.015742142830599715 -0.015742142830599715 0.055097501477077086 73.92502818650179 217.86505105723472)"><path d="M472.208,201.712c9.271-9.037,12.544-22.3,8.544-34.613c-4.001-12.313-14.445-21.118-27.257-22.979l-112.03-16.279    c-2.199-0.319-4.1-1.7-5.084-3.694L286.28,22.632c-5.729-11.61-17.331-18.822-30.278-18.822c-12.947,0-24.549,7.212-30.278,18.822    l-50.101,101.516c-0.985,1.993-2.885,3.374-5.085,3.694L58.51,144.12c-12.812,1.861-23.255,10.666-27.257,22.979    c-4.002,12.313-0.728,25.576,8.544,34.613l81.065,79.019c1.591,1.552,2.318,3.787,1.942,5.978l-19.137,111.576    c-2.188,12.761,2.958,25.414,13.432,33.024c10.474,7.612,24.102,8.595,35.56,2.572l100.201-52.679    c1.968-1.035,4.317-1.035,6.286,0l100.202,52.679c4.984,2.62,10.377,3.915,15.744,3.914c6.97,0,13.896-2.184,19.813-6.487    c10.474-7.611,15.621-20.265,13.432-33.024l-19.137-111.576c-0.375-2.191,0.351-4.426,1.942-5.978L472.208,201.712z     M362.579,291.276l19.137,111.578c0.64,3.734-1.665,5.863-2.686,6.604c-1.022,0.74-3.76,2.277-7.112,0.513l-100.202-52.679    c-4.919-2.585-10.315-3.879-15.712-3.879c-5.397,0-10.794,1.294-15.712,3.878l-100.201,52.678    c-3.354,1.763-6.091,0.228-7.112-0.513c-1.021-0.741-3.327-2.87-2.686-6.604l19.137-111.576    c1.879-10.955-1.75-22.127-9.711-29.886l-81.065-79.019c-2.713-2.646-2.099-5.723-1.708-6.923    c0.389-1.201,1.702-4.052,5.451-4.596l112.027-16.279c10.999-1.598,20.504-8.502,25.424-18.471l50.101-101.516    c1.677-3.397,4.793-3.764,6.056-3.764c1.261,0,4.377,0.366,6.055,3.764v0.001l50.101,101.516    c4.919,9.969,14.423,16.873,25.422,18.471l112.029,16.279c3.749,0.544,5.061,3.395,5.451,4.596    c0.39,1.201,1.005,4.279-1.709,6.923l-81.065,79.019C364.329,269.149,360.7,280.321,362.579,291.276z" fill="#fcf8de"/><path d="M413.783,22.625c-6.036-4.384-14.481-3.046-18.865,2.988l-14.337,19.732c-4.384,6.034-3.047,14.481,2.988,18.865    c2.399,1.741,5.176,2.58,7.928,2.58c4.177,0,8.295-1.931,10.937-5.567l14.337-19.732    C421.155,35.456,419.818,27.009,413.783,22.625z" fill="#fcf8de"/><path d="M131.36,45.265l-14.337-19.732c-4.383-6.032-12.829-7.37-18.865-2.988c-6.034,4.384-7.372,12.831-2.988,18.865    l14.337,19.732c2.643,3.639,6.761,5.569,10.939,5.569c2.753,0,5.531-0.839,7.927-2.581C134.407,59.747,135.745,51.3,131.36,45.265    z" fill="#fcf8de"/><path d="M49.552,306.829c-2.305-7.093-9.924-10.976-17.019-8.671l-23.197,7.538c-7.095,2.305-10.976,9.926-8.671,17.019    c1.854,5.709,7.149,9.337,12.842,9.337c1.383,0,2.79-0.215,4.177-0.666l23.197-7.538    C47.975,321.543,51.857,313.924,49.552,306.829z" fill="#fcf8de"/><path d="M256.005,456.786c-7.459,0-13.506,6.047-13.506,13.506v24.392c0,7.459,6.047,13.506,13.506,13.506    c7.459,0,13.506-6.047,13.506-13.506v-24.392C269.511,462.832,263.465,456.786,256.005,456.786z" fill="#fcf8de"/><path d="M502.664,305.715l-23.197-7.538c-7.092-2.303-14.714,1.577-17.019,8.672c-2.305,7.095,1.576,14.714,8.671,17.019    l23.197,7.538c1.387,0.45,2.793,0.664,4.176,0.664c5.694,0,10.989-3.629,12.843-9.337    C513.64,315.639,509.758,308.02,502.664,305.715z" fill="#fcf8de"/></g><path d="M453.858,105.116v-91.6c0-4.3-2.1-8.4-5.5-10.9c-3.5-2.5-8-3.3-12.1-2l-272.9,86.7c-5.6,1.8-9.4,7-9.4,12.9v91.7v0.1v175.3   c-14.3-9.9-32.6-15.3-51.8-15.3c-20.3,0-39.6,6.1-54.3,17.1c-15.8,11.9-24.5,28-24.5,45.5s8.7,33.6,24.5,45.5   c14.7,11,33.9,17.1,54.3,17.1s39.6-6.1,54.3-17.1c15.8-11.9,24.5-28,24.5-45.5v-212.8l245.9-78.2v156.6   c-14.3-9.9-32.6-15.3-51.8-15.3c-20.3,0-39.6,6.1-54.3,17.1c-15.8,11.9-24.5,28-24.5,45.5s8.7,33.6,24.5,45.5   c14.7,11,33.9,17.1,54.3,17.1s39.6-6.1,54.3-17.1c15.8-11.9,24.5-28,24.5-45.5v-222.3   C453.858,105.116,453.858,105.116,453.858,105.116z M102.158,450.216c-28.1,0-51.8-16.3-51.8-35.6c0-19.3,23.7-35.6,51.8-35.6   s51.8,16.3,51.8,35.6C153.958,434.016,130.258,450.216,102.158,450.216z M180.958,173.416v-63.4l245.9-78.1v63.4L180.958,173.416z    M375.158,363.116c-28.1,0-51.8-16.3-51.8-35.6c0-19.3,23.7-35.6,51.8-35.6s51.8,16.3,51.8,35.6   C426.858,346.816,403.158,363.116,375.158,363.116z" transform="matrix(0.062252811082519226 -0.015563202736913962 0.015563202736913962 0.062252811082519226 146.43415791528932 166.85263139208186)" id="L1_18" fill="#fcf8de"/><path d="m444.609 404.627-108.171-211.322v-163.305h14.707c8.284 0 15-6.716 15-15s-6.716-15-15-15h-190.29c-8.284 0-15 6.716-15 15s6.716 15 15 15h14.707v163.305l-108.171 211.323c-11.799 23.05-10.777 50 2.732 72.092 13.509 22.091 37.033 35.28 62.928 35.28h245.898c25.895 0 49.419-13.189 62.928-35.28 13.51-22.092 14.531-49.042 2.732-72.093zm-240.694-200.871c1.083-2.116 1.647-4.458 1.647-6.835v-166.921h100.875v166.921c0 2.376.564 4.719 1.647 6.835l41.738 81.539h-187.645zm175.034 278.244h-245.898c-15.362 0-29.319-7.825-37.334-20.931-4.509-7.373-6.673-15.657-6.458-23.929.12-4.595.974-9.187 2.568-13.616.638-1.772 54.993-108.229 54.993-108.229h218.36s53.57 104.72 53.948 105.592c2.269 5.229 3.47 10.738 3.613 16.253.215 8.272-1.949 16.556-6.458 23.929-8.014 13.106-21.971 20.931-37.334 20.931z" transform="matrix(0.05770159252181667 0.030004828578708762 -0.030004828578708762 0.05770159252181667 26.256160698232332 81.38117111352577)" id="L1_19" fill="#fcf8de"/><path d="m502.343 177.3-240-104c-4.059-1.759-8.665-1.759-12.724 0l-240 104c-12.824 5.557-12.827 23.804 0 29.361l86.362 37.423v99.896c0 53.832 70.28 96 160 96s160-42.168 160-96v-99.896l16-6.933v170.829c0 8.836 7.164 16 16 16s16-7.164 16-16v-184.695l38.362-16.623c12.824-5.557 12.826-23.804 0-29.362zm-246.362-71.882 199.759 86.563-15.843 6.865-181.932-22.742c-8.769-1.089-16.765 5.124-17.861 13.892s5.124 16.765 13.892 17.861l128.142 16.018-126.157 54.668c-112.857-48.905-88.82-38.489-199.759-86.563zm128 238.563c0 15.075-12.373 30.596-33.947 42.581-51.381 28.545-136.575 28.629-188.106 0-21.574-11.985-33.947-27.506-33.947-42.581v-86.029l121.638 52.71c4.052 1.756 8.657 1.762 12.724 0l121.638-52.71z" transform="matrix(0.0460609473067598 -0.0460609473067598 0.0460609473067598 0.0460609473067598 -4.605514902198607 239.9621587803082)" id="L1_20" fill="#fcf8de"/><path d="m502.343 177.3-240-104c-4.059-1.759-8.665-1.759-12.724 0l-240 104c-12.824 5.557-12.827 23.804 0 29.361l86.362 37.423v99.896c0 53.832 70.28 96 160 96s160-42.168 160-96v-99.896l16-6.933v170.829c0 8.836 7.164 16 16 16s16-7.164 16-16v-184.695l38.362-16.623c12.824-5.557 12.826-23.804 0-29.362zm-246.362-71.882 199.759 86.563-15.843 6.865-181.932-22.742c-8.769-1.089-16.765 5.124-17.861 13.892s5.124 16.765 13.892 17.861l128.142 16.018-126.157 54.668c-112.857-48.905-88.82-38.489-199.759-86.563zm128 238.563c0 15.075-12.373 30.596-33.947 42.581-51.381 28.545-136.575 28.629-188.106 0-21.574-11.985-33.947-27.506-33.947-42.581v-86.029l121.638 52.71c4.052 1.756 8.657 1.762 12.724 0l121.638-52.71z" transform="matrix(-0.038661008752545856 -0.02956430159078468 -0.02956430159078468 0.038661008752545856 291.382896200606 48.639878176473474)" fill="#fcf8de"/><path d="M456.836,76.168l-64-64.054c-16.125-16.139-44.177-16.17-60.365,0.031L45.763,301.682    c-1.271,1.282-2.188,2.857-2.688,4.587L0.409,455.73c-1.063,3.722-0.021,7.736,2.719,10.478c2.031,2.033,4.75,3.128,7.542,3.128    c0.979,0,1.969-0.136,2.927-0.407l149.333-42.703c1.729-0.5,3.302-1.418,4.583-2.69l289.323-286.983    c8.063-8.069,12.5-18.787,12.5-30.192S464.899,84.237,456.836,76.168z M285.989,89.737l39.264,39.264L120.257,333.998    l-14.712-29.434c-1.813-3.615-5.5-5.896-9.542-5.896H78.921L285.989,89.737z M26.201,443.137L40.095,394.5l34.742,34.742    L26.201,443.137z M149.336,407.96l-51.035,14.579l-51.503-51.503l14.579-51.035h28.031l18.385,36.771    c1.031,2.063,2.708,3.74,4.771,4.771l36.771,18.385V407.96z M170.67,390.417v-17.082c0-4.042-2.281-7.729-5.896-9.542    l-29.434-14.712l204.996-204.996l39.264,39.264L170.67,390.417z M441.784,121.72l-47.033,46.613l-93.747-93.747l46.582-47.001    c8.063-8.063,22.104-8.063,30.167,0l64,64c4.031,4.031,6.25,9.385,6.25,15.083S445.784,117.72,441.784,121.72z" transform="matrix(0.013963948945626657 -0.060510460587889246 0.060510460587889246 0.013963948945626657 209.5142722890847 229.89367830480472)" fill="#fcf8de"/><path d="m393.453125 339.550781c-5.304687-17.050781-14.667969-32.558593-27.28125-45.199219l-265.644531-265.644531c-3.90625-3.902343-10.238282-3.902343-14.140625 0l-1.484375 1.484375-20.992188-21.261718c-5.636718-5.710938-13.328125-8.929688-21.355468-8.929688-8.027344 0-15.71875 3.21875-21.355469 8.929688l-12.316407 12.484374c-11.539062 11.757813-11.472656 30.605469.144532 42.285157l21.109375 21.109375-7.765625 7.679687c-9.464844 9.359375-14.808594 22.105469-14.84375 35.414063-.039063 13.308594 5.230468 26.082031 14.640625 35.496094l80.035156 80.03125c3.90625 3.90625 10.238281 3.90625 14.144531 0 3.902344-3.902344 3.902344-10.234376-.003906-14.140626l-80.03125-80.035156c-11.453125-11.449218-11.746094-29.925781-.664062-41.730468l119.71875 119.71875 21.863281 21.867187 14.148437 14.140625 102.945313 102.945312c12.636719 12.617188 28.148437 21.976563 45.199219 27.285157l60.027343 18.613281c3.542969 1.097656 7.40625.144531 10.03125-2.480469s3.578125-6.488281 2.480469-10.035156zm-370.332031-304.089843 12.3125-12.484376c1.878906-1.90625 4.445312-2.976562 7.121094-2.976562 2.675781 0 5.242187 1.070312 7.121093 2.976562l21.082031 21.355469-26.398437 26.40625-21.191406-21.183593c-3.871094-3.890626-3.894531-10.175782-.046875-14.09375zm26.777344 58.023437 43.558593-43.5625 106.128907 106.128906-43.5625 43.5625zm120.269531 120.269531 43.558593-43.5625 21.214844 21.214844-43.5625 43.5625zm35.355469 35.355469 43.5625-43.5625 102.941406 102.945313c1.039062 1.042968 2.050781 2.113281 3.035156 3.207031l-43.390625 43.390625c-1.089844-.988282-2.164063-2-3.199219-3.035156zm139.925781 125.265625c-6.019531-1.871094-11.824219-4.367188-17.324219-7.453125l38.769531-38.769531c3.085938 5.496094 5.585938 11.304687 7.457031 17.324218l12.988282 41.886719zm0 0" transform="matrix(0.08488009568533299 0.04951338942399314 -0.04951338942399314 0.08488009568533299 312.0651773081671 105.52958573975002)" id="L1_21" fill="#fcf8de"/><g transform="matrix(-0.0585600431784031 -0.030451222927086876 -0.030451222927086876 0.0585600431784031 171.78688412300542 17.804142015663047)"><path d="m420.879 0h-319.343c-14.888 0-27 12.112-27 27v37.821h-16.065c-8.284 0-15 6.716-15 15s6.716 15 15 15h16.065v58.089h-16.065c-8.284 0-15 6.716-15 15s6.716 15 15 15h16.065v58.09h-16.065c-8.284 0-15 6.716-15 15s6.716 15 15 15h16.065v58.09h-16.065c-8.284 0-15 6.716-15 15s6.716 15 15 15h16.065v58.089h-16.065c-8.284 0-15 6.716-15 15s6.716 15 15 15h16.065v37.821c0 14.888 12.112 27 27 27h319.343c26.274 0 47.65-21.375 47.65-47.65v-416.7c0-26.275-21.375-47.65-47.65-47.65zm17.65 464.35c0 9.732-7.917 17.65-17.65 17.65h-316.343v-34.821h16.065c8.284 0 15-6.716 15-15s-6.716-15-15-15h-16.065v-58.089h16.065c8.284 0 15-6.716 15-15s-6.716-15-15-15h-16.065v-58.09h16.065c8.284 0 15-6.716 15-15s-6.716-15-15-15h-16.065v-58.09h16.065c8.284 0 15-6.716 15-15s-6.716-15-15-15h-16.065v-58.089h16.065c8.284 0 15-6.716 15-15s-6.716-15-15-15h-16.065v-34.821h316.343c9.732 0 17.65 7.917 17.65 17.65z" fill="#fcf8de"/><path d="m378.563 417.179h-71.554c-8.284 0-15 6.716-15 15s6.716 15 15 15h71.554c8.284 0 15-6.716 15-15s-6.716-15-15-15z" fill="#fcf8de"/><path d="m378.563 64.821h-183.356c-8.284 0-15 6.716-15 15v81.392c0 8.284 6.716 15 15 15h183.356c8.284 0 15-6.716 15-15v-81.392c0-8.284-6.716-15-15-15zm-15 81.392h-153.356v-51.392h153.356z" fill="#fcf8de"/></g><g transform="matrix(0.47775740552750506 -0.2700367966586171 0.2700367966586171 0.47775740552750506 105.30189726550898 316.46780226552187)" id="L1_22"><path d="m49.7319336 61.1767578c1.0776367.784668 2.347168 1.1958008 3.6523438 1.1958008.3242188 0 .6508789-.0253906.9770508-.0766602 3.3901367-.5332031 5.7143555-3.7250977 5.1816406-7.1152344-.5332031-3.390625-3.7314453-5.715332-7.1152344-5.1816406-1.6401367.2578125-3.0830078 1.140625-4.0625 2.4858398s-1.3769531 2.9892578-1.1191406 4.6293945 1.140625 3.0830079 2.4858398 4.0625001zm3.0063476-9.2021484c.2211914-.034668.440918-.0517578.6582031-.0517578 2.0424805 0 3.84375 1.4892578 4.1708984 3.5683594.3613281 2.3007812-1.2158203 4.4667969-3.5166016 4.8291016-2.3027344.359375-4.4677734-1.2163086-4.8291016-3.5166016-.3618162-2.3012696 1.2158205-4.4672852 3.5166017-4.8291016z" fill="#fcf8de"/><path d="m4.9091797 54.3115234c-1.0131836 6.4536133 3.4067383 12.5292969 9.8535156 13.5439453.6054688.0952148 1.2104492.1416016 1.8125.1416016 4.2026367 0 8.2006836-2.2661133 10.3383789-6.0214844l8.0840454-15.5198975 7.7924194 14.9471436.3193359.6147461c2.1176758 3.7158203 6.1098633 5.9741211 10.3105469 5.9741211.6020508 0 1.2089844-.0463867 1.8144531-.1416016 6.4487305-1.0141602 10.8701172-7.0859375 9.8564453-13.534668-1.0141602-6.4482422-7.0878906-10.8696289-13.5341797-9.8564453-2.1723633.3417969-4.1538086 1.2548828-5.8017578 2.6630859l-5.5424194-10.652832 12.4296265-23.8540039c1.6020508-3.0805664.7900391-6.8647461-1.9262695-8.9936523l-1.7666016-1.4013672c-.2333984-.1855469-.5395508-.2553711-.8300781-.1948242-.2919922.0625-.5410156.2519531-.6787109.5166016l-12.4388428 23.9117432-12.4425049-23.9151612c-.1381836-.2651367-.387207-.4545898-.6796875-.5166016-.2905273-.0610352-.5966797.0097656-.8305664.1958008l-1.7573242 1.3999023c-2.7265625 2.1298828-3.5415039 5.9125977-1.9375 8.9946289l12.4343262 23.8510742-5.545166 10.6635742c-1.6518555-1.4013672-3.6689453-2.3354492-5.8017578-2.6689453-6.4501954-1.0151366-12.5170899 3.4052735-13.5322266 9.8535157zm41.3071289-4.8642578c1.5102539-1.6264648 3.4643555-2.668457 5.6508789-3.0126953 5.3583984-.8398438 10.4047852 2.8325195 11.2480469 8.1914062.8422852 5.359375-2.8325195 10.4057617-8.1914062 11.2485352-4.0151367.6298828-8.0649414-1.3168945-10.0581055-4.8120117l-5.9800415-11.4718628 4.4866333-2.7144775 1.223877 2.352356c.1503906.2885742.4311523.4858398.753418.5297852.3193358.0400389.6450194-.0722657.8666991-.3110353zm2.4394531-44.9072265.8212891.6518555c1.9638672 1.5395508 2.5488281 4.2734375 1.3911133 6.5l-11.7822876 22.6119994-2.9569702-5.6834106zm-28.1254883.6479492.8149414-.6494141 21.1022339 40.5599365-4.4879761 2.715271-18.831543-36.1257935c-1.1591796-2.2260741-.5722655-4.9575194 1.4023438-6.4999999zm13.3392334 39.1037597-1.8345337 3.5195923-4.4840088-2.7128906 3.3656006-6.4709473zm-15.7376709 2.1418458c2.1782227.3408203 4.1328125 1.3833008 5.6518555 3.0151367.2211914.2373047.5405273.3496094.8662109.3095703.3217773-.0439453.6020508-.2407227.7524414-.5288086l1.223938-2.3532715 4.4824829 2.7119751-5.6820068 10.901062-.2729492.5366211c-2.0126953 3.534668-6.0585938 5.4848633-10.0805664 4.8540039-5.3574219-.8432617-9.0307617-5.8935547-8.1884766-11.2578125.8432617-5.3579101 5.8867188-9.0336914 11.2470703-8.1884765z" fill="#fcf8de"/><path d="m15.637207 62.2958984c.3261719.0512695.6499023.0761719.9702148.0761719 3.0087891 0 5.6630859-2.1938477 6.1450195-5.2578125.5332031-3.390625-1.7915039-6.5825195-5.1816406-7.1152344-3.3925781-.5351562-6.5830078 1.7915039-7.1152344 5.1816406-.5336913 3.3896485 1.7910157 6.5820313 5.1816407 7.1152344zm-3.2060547-6.8046875c.3618164-2.3007812 2.5288086-3.8774414 4.8291016-3.5166016 2.3007812.3618164 3.878418 2.527832 3.5166016 4.8291016-.3618164 2.3007812-2.5263672 3.8793945-4.8291016 3.5166016-2.3007812-.3623047-3.878418-2.5283203-3.5166016-4.8291016z" fill="#fcf8de"/><path d="m35.7099609 35.8598633c-.3803711-.3798828-1.050293-.3798828-1.4199219 0-.1801757.1801758-.290039.4399414-.290039.7001953 0 .2695312.1098633.5195312.2900391.7099609.1899414.1899414.449707.2900391.7099609.2900391.2597656 0 .5200195-.1000977.7099609-.2900391.0400391-.050293.0800781-.1000977.1196289-.1503906.0400391-.0595703.0703125-.1196289.0903321-.1796875.0297852-.0600586.0498047-.1201172.0600586-.1801758.0097656-.0698242.0200195-.1298828.0200195-.199707 0-.2602539-.1103516-.5200195-.2900391-.7001953z" fill="#fcf8de"/></g><path d="m256 455.515625c-7.289062 0-14.316406-2.640625-19.792969-7.4375-20.683593-18.085937-40.625-35.082031-58.21875-50.074219l-.089843-.078125c-51.582032-43.957031-96.125-81.917969-127.117188-119.3125-34.644531-41.804687-50.78125-81.441406-50.78125-124.742187 0-42.070313 14.425781-80.882813 40.617188-109.292969 26.503906-28.746094 62.871093-44.578125 102.414062-44.578125 29.554688 0 56.621094 9.34375 80.445312 27.769531 12.023438 9.300781 22.921876 20.683594 32.523438 33.960938 9.605469-13.277344 20.5-24.660157 32.527344-33.960938 23.824218-18.425781 50.890625-27.769531 80.445312-27.769531 39.539063 0 75.910156 15.832031 102.414063 44.578125 26.191406 28.410156 40.613281 67.222656 40.613281 109.292969 0 43.300781-16.132812 82.9375-50.777344 124.738281-30.992187 37.398437-75.53125 75.355469-127.105468 119.308594-17.625 15.015625-37.597657 32.039062-58.328126 50.167969-5.472656 4.789062-12.503906 7.429687-19.789062 7.429687zm-112.96875-425.523437c-31.066406 0-59.605469 12.398437-80.367188 34.914062-21.070312 22.855469-32.675781 54.449219-32.675781 88.964844 0 36.417968 13.535157 68.988281 43.882813 105.605468 29.332031 35.394532 72.960937 72.574219 123.476562 115.625l.09375.078126c17.660156 15.050781 37.679688 32.113281 58.515625 50.332031 20.960938-18.253907 41.011719-35.34375 58.707031-50.417969 50.511719-43.050781 94.136719-80.222656 123.46875-115.617188 30.34375-36.617187 43.878907-69.1875 43.878907-105.605468 0-34.515625-11.605469-66.109375-32.675781-88.964844-20.757813-22.515625-49.300782-34.914062-80.363282-34.914062-22.757812 0-43.652344 7.234374-62.101562 21.5-16.441406 12.71875-27.894532 28.796874-34.609375 40.046874-3.453125 5.785157-9.53125 9.238282-16.261719 9.238282s-12.808594-3.453125-16.261719-9.238282c-6.710937-11.25-18.164062-27.328124-34.609375-40.046874-18.449218-14.265626-39.34375-21.5-62.097656-21.5zm0 0" transform="matrix(0.05882098406469312 0.02396410434869928 -0.02396410434869928 0.05882098406469312 325.39978093661233 -10.841433325361226)" fill="#fcf8de"/><g transform="matrix(1.6977310209411993 -0.8488655421532726 0.8488655421532726 1.6977310209411993 5.240273998101635 282.6013978690066)"><path d="m13.5 24h-3c-.7 0-1.5-.6-1.5-1.8v-2.1c0-1-.5-1.9-1.3-2.6-1.8-1.4-2.7-3.4-2.7-5.6.1-3.8 3.2-6.8 6.9-6.9 1.9 0 3.7.7 5 2s2.1 3.1 2.1 5c0 2.1-.9 4.1-2.6 5.4-.9.7-1.4 1.8-1.4 2.8v2.3c0 .8-.7 1.5-1.5 1.5zm-1.5-18c-3.2 0-5.9 2.7-6 5.9 0 1.9.8 3.7 2.3 4.8 1.1.9 1.7 2.1 1.7 3.4v2.1c0 .2 0 .8.5.8h3c.3 0 .5-.2.5-.5v-2.3c0-1.3.7-2.7 1.8-3.6 1.4-1.1 2.2-2.8 2.2-4.6 0-1.6-.6-3.1-1.8-4.3-1.1-1.1-2.6-1.7-4.2-1.7z" fill="#fcf8de"/><path d="m14.5 21h-5c-.3 0-.5-.2-.5-.5s.2-.5.5-.5h5c.3 0 .5.2.5.5s-.2.5-.5.5z" fill="#fcf8de"/><path d="m12 3c-.3 0-.5-.2-.5-.5v-2c0-.3.2-.5.5-.5s.5.2.5.5v2c0 .3-.2.5-.5.5z" fill="#fcf8de"/><path d="m18.7 5.8c-.1 0-.3 0-.4-.1-.2-.2-.2-.5 0-.7l1.4-1.4c.2-.2.5-.2.7 0s.2.5 0 .7l-1.4 1.4s-.2.1-.3.1z" fill="#fcf8de"/><path d="m23.5 12.5h-2c-.3 0-.5-.2-.5-.5s.2-.5.5-.5h2c.3 0 .5.2.5.5s-.2.5-.5.5z" fill="#fcf8de"/><path d="m20.1 20.6c-.1 0-.3 0-.4-.1l-1.4-1.4c-.2-.2-.2-.5 0-.7s.5-.2.7 0l1.4 1.4c.2.2.2.5 0 .7 0 .1-.1.1-.3.1z" fill="#fcf8de"/><path d="m3.9 20.6c-.1 0-.3 0-.4-.1-.2-.2-.2-.5 0-.7l1.4-1.4c.2-.2.5-.2.7 0s.2.5 0 .7l-1.4 1.4c-.1.1-.2.1-.3.1z" fill="#fcf8de"/><path d="m2.5 12.5h-2c-.3 0-.5-.2-.5-.5s.2-.5.5-.5h2c.3 0 .5.2.5.5s-.2.5-.5.5z" fill="#fcf8de"/><path d="m5.3 5.8c-.1 0-.3 0-.4-.1l-1.4-1.5c-.2-.2-.2-.5 0-.7s.5-.2.7 0l1.4 1.4c.2.2.2.5 0 .7-.1.1-.2.2-.3.2z" fill="#fcf8de"/><path d="m16 12.5c-.3 0-.5-.2-.5-.5 0-1.9-1.6-3.5-3.5-3.5-.3 0-.5-.2-.5-.5s.2-.5.5-.5c2.5 0 4.5 2 4.5 4.5 0 .3-.2.5-.5.5z" fill="#fcf8de"/></g><g transform="matrix(0.3906869136206455 0.3906869136206455 -0.3906869136206455 0.3906869136206455 234.08856950348226 283.0131657446311)" id="L1_23"><path d="m57 72h-40a5.006 5.006 0 0 1 -5-5v-60a5.006 5.006 0 0 1 5-5h40a5.006 5.006 0 0 1 5 5v60a5.006 5.006 0 0 1 -5 5zm-40-68a3 3 0 0 0 -3 3v60a3 3 0 0 0 3 3h40a3 3 0 0 0 3-3v-60a3 3 0 0 0 -3-3z" fill="#fcf8de"/><path d="m53.5 23h-33a2 2 0 0 1 -2-2v-9a2 2 0 0 1 2-2h33a2 2 0 0 1 2 2v9a2 2 0 0 1 -2 2zm-33-11v9h33v-9z" fill="#fcf8de"/><path d="m52.625 37.292h-5.208a1.71 1.71 0 0 1 -1.709-1.708v-5.209a1.711 1.711 0 0 1 1.709-1.708h5.208a1.711 1.711 0 0 1 1.708 1.708v5.208a1.71 1.71 0 0 1 -1.708 1.709zm-4.917-2h4.625v-4.625h-4.625z" fill="#fcf8de"/><path d="m39.6 37.292h-5.2a1.71 1.71 0 0 1 -1.708-1.708v-5.209a1.711 1.711 0 0 1 1.708-1.708h5.2a1.711 1.711 0 0 1 1.708 1.708v5.208a1.71 1.71 0 0 1 -1.708 1.709zm-4.917-2h4.625v-4.625h-4.62z" fill="#fcf8de"/><path d="m26.583 37.292h-5.208a1.71 1.71 0 0 1 -1.708-1.708v-5.209a1.711 1.711 0 0 1 1.708-1.708h5.208a1.711 1.711 0 0 1 1.709 1.708v5.208a1.71 1.71 0 0 1 -1.709 1.709zm-4.916-2h4.625v-4.625h-4.625z" fill="#fcf8de"/><path d="m39.6 50.313h-5.2a1.711 1.711 0 0 1 -1.712-1.713v-5.2a1.711 1.711 0 0 1 1.712-1.712h5.2a1.711 1.711 0 0 1 1.713 1.712v5.2a1.711 1.711 0 0 1 -1.713 1.713zm-4.917-2h4.625v-4.625h-4.62z" fill="#fcf8de"/><path d="m26.583 50.313h-5.208a1.711 1.711 0 0 1 -1.708-1.713v-5.2a1.711 1.711 0 0 1 1.708-1.708h5.208a1.711 1.711 0 0 1 1.709 1.708v5.2a1.711 1.711 0 0 1 -1.709 1.713zm-4.916-2h4.625v-4.625h-4.625z" fill="#fcf8de"/><path d="m52.622 63.33h-5.2a1.711 1.711 0 0 1 -1.708-1.708v-18.222a1.711 1.711 0 0 1 1.708-1.708h5.2a1.711 1.711 0 0 1 1.708 1.708v18.222a1.711 1.711 0 0 1 -1.708 1.708zm-4.912-2h4.62v-17.64h-4.62z" fill="#fcf8de"/><path d="m39.6 63.333h-5.2a1.711 1.711 0 0 1 -1.708-1.708v-5.208a1.71 1.71 0 0 1 1.708-1.709h5.2a1.71 1.71 0 0 1 1.708 1.708v5.208a1.711 1.711 0 0 1 -1.708 1.709zm-4.917-2h4.625v-4.625h-4.62z" fill="#fcf8de"/><path d="m26.583 63.333h-5.208a1.711 1.711 0 0 1 -1.708-1.708v-5.208a1.71 1.71 0 0 1 1.708-1.708h5.208a1.71 1.71 0 0 1 1.709 1.708v5.208a1.711 1.711 0 0 1 -1.709 1.708zm-4.916-2h4.625v-4.625h-4.625z" fill="#fcf8de"/></g><path d="M431.666,49.412c-51.692-50.578-134.33-50.567-186.009,0.025L28.911,266.184c-39.192,40.116-38.443,104.407,1.673,143.599    c39.456,38.548,102.47,38.548,141.926,0l196.267-196.267c25.515-25.515,25.515-66.884,0-92.399    c-25.515-25.515-66.884-25.515-92.399,0L88.644,308.85c-6.548,6.78-6.36,17.584,0.42,24.132c6.614,6.388,17.099,6.388,23.713,0    L300.51,145.249c12.449-11.926,32.209-11.501,44.134,0.948c11.565,12.073,11.565,31.114,0,43.187L148.378,385.65    c-26.514,26.137-69.197,25.831-95.334-0.683c-25.873-26.246-25.873-68.405,0-94.651L269.79,73.569    c38.608-38.622,101.214-38.633,139.836-0.026c38.622,38.607,38.633,101.214,0.026,139.836L192.905,430.126    c-7.159,6.131-7.993,16.905-1.862,24.064c6.131,7.159,16.905,7.993,24.064,1.862c0.668-0.572,1.29-1.194,1.862-1.862    l216.747-216.747C485.073,184.954,484.156,100.769,431.666,49.412z" transform="matrix(0.05455458881894826 -0.009092431496327127 0.009092431496327127 0.05455458881894826 61.01043766943948 31.932562319452618)" id="L1_24" fill="#fcf8de"/><path d="M0.043,245.197c0.6,10.1,7.3,18.6,17,21.5l179.6,54.3l6.6,123.8c0.3,4.9,3.6,9.2,8.3,10.8c1.3,0.5,2.7,0.7,4,0.7   c3.5,0,6.8-1.4,9.2-4.1l63.5-70.3l90,62.3c4,2.8,8.7,4.3,13.6,4.3c11.3,0,21.1-8,23.5-19.2l74.7-380.7c0.9-4.4-0.8-9-4.2-11.8   c-3.5-2.9-8.2-3.6-12.4-1.9l-459,186.8C5.143,225.897-0.557,235.097,0.043,245.197z M226.043,414.097l-4.1-78.1l46,31.8   L226.043,414.097z M391.443,423.597l-163.8-113.4l229.7-222.2L391.443,423.597z M432.143,78.197l-227.1,219.7l-179.4-54.2   L432.143,78.197z" transform="matrix(0.0817456766963005 0 0 0.0817456766963005 287.9550537788675 273.9447756475307)" id="L1_25" fill="#fcf8de"/></defs><g fi:class="KUsePattern"><pattern id="pattern_L1_4" width="350" height="350" patternUnits="userSpaceOnUse"><use xlink:href="#L1_4" x="-350" y="-350"/><use xlink:href="#L1_4" x="0" y="-350"/><use xlink:href="#L1_4" x="350" y="-350"/><use xlink:href="#L1_4" x="-350" y="0"/><use xlink:href="#L1_4" x="0" y="0"/><use xlink:href="#L1_4" x="350" y="0"/><use xlink:href="#L1_4" x="-350" y="350"/><use xlink:href="#L1_4" x="0" y="350"/><use xlink:href="#L1_4" x="350" y="350"/></pattern><rect x="0" y="0" width="100%" height="100%" fill="url(#pattern_L1_4)"/></g><g fi:class="KUsePattern"><pattern id="pattern_L1_10" width="350" height="350" patternUnits="userSpaceOnUse"><use xlink:href="#L1_10" x="-350" y="-350"/><use xlink:href="#L1_10" x="0" y="-350"/><use xlink:href="#L1_10" x="350" y="-350"/><use xlink:href="#L1_10" x="-350" y="0"/><use xlink:href="#L1_10" x="0" y="0"/><use xlink:href="#L1_10" x="350" y="0"/><use xlink:href="#L1_10" x="-350" y="350"/><use xlink:href="#L1_10" x="0" y="350"/><use xlink:href="#L1_10" x="350" y="350"/></pattern><rect x="0" y="0" width="100%" height="100%" fill="url(#pattern_L1_10)"/></g><g fi:class="KUsePattern"><pattern id="pattern_L1_12" width="350" height="350" patternUnits="userSpaceOnUse"><use xlink:href="#L1_12" x="-350" y="-350"/><use xlink:href="#L1_12" x="0" y="-350"/><use xlink:href="#L1_12" x="350" y="-350"/><use xlink:href="#L1_12" x="-350" y="0"/><use xlink:href="#L1_12" x="0" y="0"/><use xlink:href="#L1_12" x="350" y="0"/><use xlink:href="#L1_12" x="-350" y="350"/><use xlink:href="#L1_12" x="0" y="350"/><use xlink:href="#L1_12" x="350" y="350"/></pattern><rect x="0" y="0" width="100%" height="100%" fill="url(#pattern_L1_12)"/></g><g fi:class="KUsePattern"><pattern id="pattern_L1_14" width="350" height="350" patternUnits="userSpaceOnUse"><use xlink:href="#L1_14" x="-350" y="-350"/><use xlink:href="#L1_14" x="0" y="-350"/><use xlink:href="#L1_14" x="350" y="-350"/><use xlink:href="#L1_14" x="-350" y="0"/><use xlink:href="#L1_14" x="0" y="0"/><use xlink:href="#L1_14" x="350" y="0"/><use xlink:href="#L1_14" x="-350" y="350"/><use xlink:href="#L1_14" x="0" y="350"/><use xlink:href="#L1_14" x="350" y="350"/></pattern><rect x="0" y="0" width="100%" height="100%" fill="url(#pattern_L1_14)"/></g><g fi:class="KUsePattern"><pattern id="pattern_L1_13" width="350" height="350" patternUnits="userSpaceOnUse"><use xlink:href="#L1_13" x="-350" y="-350"/><use xlink:href="#L1_13" x="0" y="-350"/><use xlink:href="#L1_13" x="350" y="-350"/><use xlink:href="#L1_13" x="-350" y="0"/><use xlink:href="#L1_13" x="0" y="0"/><use xlink:href="#L1_13" x="350" y="0"/><use xlink:href="#L1_13" x="-350" y="350"/><use xlink:href="#L1_13" x="0" y="350"/><use xlink:href="#L1_13" x="350" y="350"/></pattern><rect x="0" y="0" width="100%" height="100%" fill="url(#pattern_L1_13)"/></g><g fi:class="KUsePattern"><pattern id="pattern_L1_15" width="350" height="350" patternUnits="userSpaceOnUse"><use xlink:href="#L1_15" x="-350" y="-350"/><use xlink:href="#L1_15" x="0" y="-350"/><use xlink:href="#L1_15" x="350" y="-350"/><use xlink:href="#L1_15" x="-350" y="0"/><use xlink:href="#L1_15" x="0" y="0"/><use xlink:href="#L1_15" x="350" y="0"/><use xlink:href="#L1_15" x="-350" y="350"/><use xlink:href="#L1_15" x="0" y="350"/><use xlink:href="#L1_15" x="350" y="350"/></pattern><rect x="0" y="0" width="100%" height="100%" fill="url(#pattern_L1_15)"/></g><g fi:class="KUsePattern"><pattern id="pattern_L1_16" width="350" height="350" patternUnits="userSpaceOnUse"><use xlink:href="#L1_16" x="-350" y="-350"/><use xlink:href="#L1_16" x="0" y="-350"/><use xlink:href="#L1_16" x="350" y="-350"/><use xlink:href="#L1_16" x="-350" y="0"/><use xlink:href="#L1_16" x="0" y="0"/><use xlink:href="#L1_16" x="350" y="0"/><use xlink:href="#L1_16" x="-350" y="350"/><use xlink:href="#L1_16" x="0" y="350"/><use xlink:href="#L1_16" x="350" y="350"/></pattern><rect x="0" y="0" width="100%" height="100%" fill="url(#pattern_L1_16)"/></g><g fi:class="KUsePattern" transform="matrix(1 0 0 1 20 20)"><pattern id="pattern_UNKNOWN" width="350" height="350" patternUnits="userSpaceOnUse"><use xlink:href="#UNKNOWN" x="-350" y="-350"/><use xlink:href="#UNKNOWN" x="0" y="-350"/><use xlink:href="#UNKNOWN" x="350" y="-350"/><use xlink:href="#UNKNOWN" x="-350" y="0"/><use xlink:href="#UNKNOWN" x="0" y="0"/><use xlink:href="#UNKNOWN" x="350" y="0"/><use xlink:href="#UNKNOWN" x="-350" y="350"/><use xlink:href="#UNKNOWN" x="0" y="350"/><use xlink:href="#UNKNOWN" x="350" y="350"/></pattern><rect x="0" y="0" width="100%" height="100%" fill="url(#pattern_UNKNOWN)"/></g><g fi:class="KUsePattern"><pattern id="pattern_L1_18" width="350" height="350" patternUnits="userSpaceOnUse"><use xlink:href="#L1_18" x="-350" y="-350"/><use xlink:href="#L1_18" x="0" y="-350"/><use xlink:href="#L1_18" x="350" y="-350"/><use xlink:href="#L1_18" x="-350" y="0"/><use xlink:href="#L1_18" x="0" y="0"/><use xlink:href="#L1_18" x="350" y="0"/><use xlink:href="#L1_18" x="-350" y="350"/><use xlink:href="#L1_18" x="0" y="350"/><use xlink:href="#L1_18" x="350" y="350"/></pattern><rect x="0" y="0" width="100%" height="100%" fill="url(#pattern_L1_18)"/></g><g fi:class="KUsePattern"><pattern id="pattern_L1_19" width="350" height="350" patternUnits="userSpaceOnUse"><use xlink:href="#L1_19" x="-350" y="-350"/><use xlink:href="#L1_19" x="0" y="-350"/><use xlink:href="#L1_19" x="350" y="-350"/><use xlink:href="#L1_19" x="-350" y="0"/><use xlink:href="#L1_19" x="0" y="0"/><use xlink:href="#L1_19" x="350" y="0"/><use xlink:href="#L1_19" x="-350" y="350"/><use xlink:href="#L1_19" x="0" y="350"/><use xlink:href="#L1_19" x="350" y="350"/></pattern><rect x="0" y="0" width="100%" height="100%" fill="url(#pattern_L1_19)"/></g><g fi:class="KUsePattern"><pattern id="pattern_L1_20" width="350" height="350" patternUnits="userSpaceOnUse"><use xlink:href="#L1_20" x="-350" y="-350"/><use xlink:href="#L1_20" x="0" y="-350"/><use xlink:href="#L1_20" x="350" y="-350"/><use xlink:href="#L1_20" x="-350" y="0"/><use xlink:href="#L1_20" x="0" y="0"/><use xlink:href="#L1_20" x="350" y="0"/><use xlink:href="#L1_20" x="-350" y="350"/><use xlink:href="#L1_20" x="0" y="350"/><use xlink:href="#L1_20" x="350" y="350"/></pattern><rect x="0" y="0" width="100%" height="100%" fill="url(#pattern_L1_20)"/></g><g fi:class="KUsePattern" transform="matrix(1 0 0 1 20 20)"><pattern id="pattern_UNKNOWN" width="350" height="350" patternUnits="userSpaceOnUse"><use xlink:href="#UNKNOWN" x="-350" y="-350"/><use xlink:href="#UNKNOWN" x="0" y="-350"/><use xlink:href="#UNKNOWN" x="350" y="-350"/><use xlink:href="#UNKNOWN" x="-350" y="0"/><use xlink:href="#UNKNOWN" x="0" y="0"/><use xlink:href="#UNKNOWN" x="350" y="0"/><use xlink:href="#UNKNOWN" x="-350" y="350"/><use xlink:href="#UNKNOWN" x="0" y="350"/><use xlink:href="#UNKNOWN" x="350" y="350"/></pattern><rect x="0" y="0" width="100%" height="100%" fill="url(#pattern_UNKNOWN)"/></g><g fi:class="KUsePattern" transform="matrix(1 0 0 1 20 20)"><pattern id="pattern_UNKNOWN" width="350" height="350" patternUnits="userSpaceOnUse"><use xlink:href="#UNKNOWN" x="-350" y="-350"/><use xlink:href="#UNKNOWN" x="0" y="-350"/><use xlink:href="#UNKNOWN" x="350" y="-350"/><use xlink:href="#UNKNOWN" x="-350" y="0"/><use xlink:href="#UNKNOWN" x="0" y="0"/><use xlink:href="#UNKNOWN" x="350" y="0"/><use xlink:href="#UNKNOWN" x="-350" y="350"/><use xlink:href="#UNKNOWN" x="0" y="350"/><use xlink:href="#UNKNOWN" x="350" y="350"/></pattern><rect x="0" y="0" width="100%" height="100%" fill="url(#pattern_UNKNOWN)"/></g><g fi:class="KUsePattern" transform="matrix(1 0 0 1 20 20)"><pattern id="pattern_UNKNOWN" width="350" height="350" patternUnits="userSpaceOnUse"><use xlink:href="#UNKNOWN" x="-350" y="-350"/><use xlink:href="#UNKNOWN" x="0" y="-350"/><use xlink:href="#UNKNOWN" x="350" y="-350"/><use xlink:href="#UNKNOWN" x="-350" y="0"/><use xlink:href="#UNKNOWN" x="0" y="0"/><use xlink:href="#UNKNOWN" x="350" y="0"/><use xlink:href="#UNKNOWN" x="-350" y="350"/><use xlink:href="#UNKNOWN" x="0" y="350"/><use xlink:href="#UNKNOWN" x="350" y="350"/></pattern><rect x="0" y="0" width="100%" height="100%" fill="url(#pattern_UNKNOWN)"/></g><g fi:class="KUsePattern"><pattern id="pattern_L1_21" width="350" height="350" patternUnits="userSpaceOnUse"><use xlink:href="#L1_21" x="-350" y="-350"/><use xlink:href="#L1_21" x="0" y="-350"/><use xlink:href="#L1_21" x="350" y="-350"/><use xlink:href="#L1_21" x="-350" y="0"/><use xlink:href="#L1_21" x="0" y="0"/><use xlink:href="#L1_21" x="350" y="0"/><use xlink:href="#L1_21" x="-350" y="350"/><use xlink:href="#L1_21" x="0" y="350"/><use xlink:href="#L1_21" x="350" y="350"/></pattern><rect x="0" y="0" width="100%" height="100%" fill="url(#pattern_L1_21)"/></g><g fi:class="KUsePattern"><pattern id="pattern_L1_22" width="350" height="350" patternUnits="userSpaceOnUse"><use xlink:href="#L1_22" x="-350" y="-350"/><use xlink:href="#L1_22" x="0" y="-350"/><use xlink:href="#L1_22" x="350" y="-350"/><use xlink:href="#L1_22" x="-350" y="0"/><use xlink:href="#L1_22" x="0" y="0"/><use xlink:href="#L1_22" x="350" y="0"/><use xlink:href="#L1_22" x="-350" y="350"/><use xlink:href="#L1_22" x="0" y="350"/><use xlink:href="#L1_22" x="350" y="350"/></pattern><rect x="0" y="0" width="100%" height="100%" fill="url(#pattern_L1_22)"/></g><g fi:class="KUsePattern" transform="matrix(1 0 0 1 20 20)"><pattern id="pattern_UNKNOWN" width="350" height="350" patternUnits="userSpaceOnUse"><use xlink:href="#UNKNOWN" x="-350" y="-350"/><use xlink:href="#UNKNOWN" x="0" y="-350"/><use xlink:href="#UNKNOWN" x="350" y="-350"/><use xlink:href="#UNKNOWN" x="-350" y="0"/><use xlink:href="#UNKNOWN" x="0" y="0"/><use xlink:href="#UNKNOWN" x="350" y="0"/><use xlink:href="#UNKNOWN" x="-350" y="350"/><use xlink:href="#UNKNOWN" x="0" y="350"/><use xlink:href="#UNKNOWN" x="350" y="350"/></pattern><rect x="0" y="0" width="100%" height="100%" fill="url(#pattern_UNKNOWN)"/></g><g fi:class="KUsePattern" transform="matrix(1 0 0 1 20 20)"><pattern id="pattern_UNKNOWN" width="350" height="350" patternUnits="userSpaceOnUse"><use xlink:href="#UNKNOWN" x="-350" y="-350"/><use xlink:href="#UNKNOWN" x="0" y="-350"/><use xlink:href="#UNKNOWN" x="350" y="-350"/><use xlink:href="#UNKNOWN" x="-350" y="0"/><use xlink:href="#UNKNOWN" x="0" y="0"/><use xlink:href="#UNKNOWN" x="350" y="0"/><use xlink:href="#UNKNOWN" x="-350" y="350"/><use xlink:href="#UNKNOWN" x="0" y="350"/><use xlink:href="#UNKNOWN" x="350" y="350"/></pattern><rect x="0" y="0" width="100%" height="100%" fill="url(#pattern_UNKNOWN)"/></g><g fi:class="KUsePattern"><pattern id="pattern_L1_23" width="350" height="350" patternUnits="userSpaceOnUse"><use xlink:href="#L1_23" x="-350" y="-350"/><use xlink:href="#L1_23" x="0" y="-350"/><use xlink:href="#L1_23" x="350" y="-350"/><use xlink:href="#L1_23" x="-350" y="0"/><use xlink:href="#L1_23" x="0" y="0"/><use xlink:href="#L1_23" x="350" y="0"/><use xlink:href="#L1_23" x="-350" y="350"/><use xlink:href="#L1_23" x="0" y="350"/><use xlink:href="#L1_23" x="350" y="350"/></pattern><rect x="0" y="0" width="100%" height="100%" fill="url(#pattern_L1_23)"/></g><g fi:class="KUsePattern"><pattern id="pattern_L1_24" width="350" height="350" patternUnits="userSpaceOnUse"><use xlink:href="#L1_24" x="-350" y="-350"/><use xlink:href="#L1_24" x="0" y="-350"/><use xlink:href="#L1_24" x="350" y="-350"/><use xlink:href="#L1_24" x="-350" y="0"/><use xlink:href="#L1_24" x="0" y="0"/><use xlink:href="#L1_24" x="350" y="0"/><use xlink:href="#L1_24" x="-350" y="350"/><use xlink:href="#L1_24" x="0" y="350"/><use xlink:href="#L1_24" x="350" y="350"/></pattern><rect x="0" y="0" width="100%" height="100%" fill="url(#pattern_L1_24)"/></g><g fi:class="KUsePattern"><pattern id="pattern_L1_25" width="350" height="350" patternUnits="userSpaceOnUse"><use xlink:href="#L1_25" x="-350" y="-350"/><use xlink:href="#L1_25" x="0" y="-350"/><use xlink:href="#L1_25" x="350" y="-350"/><use xlink:href="#L1_25" x="-350" y="0"/><use xlink:href="#L1_25" x="0" y="0"/><use xlink:href="#L1_25" x="350" y="0"/><use xlink:href="#L1_25" x="-350" y="350"/><use xlink:href="#L1_25" x="0" y="350"/><use xlink:href="#L1_25" x="350" y="350"/></pattern><rect x="0" y="0" width="100%" height="100%" fill="url(#pattern_L1_25)"/></g></svg>