<?xml version="1.0" encoding="iso-8859-1"?>
<!-- Generator: Adobe Illustrator 19.0.0, SVG Export Plug-In . SVG Version: 6.00 Build 0)  -->
<svg version="1.1" id="Capa_1" xmlns="http://www.w3.org/2000/svg" xmlns:xlink="http://www.w3.org/1999/xlink" x="0px" y="0px"
	 viewBox="0 0 479.553 479.553" style="enable-background:new 0 0 479.553 479.553;" xml:space="preserve">
<g>
	<g>
		<path d="M223.55,315.73c-4.418,0-8,3.582-8,8s3.582,8,8,8c13.255,0,24,10.745,24,24c0,4.418,3.582,8,8,8s8-3.582,8-8
			C263.524,333.649,245.631,315.756,223.55,315.73z"/>
	</g>
</g>
<g>
	<g>
		<path d="M477.213,102.248c-0.002-0.002-0.004-0.004-0.006-0.006L381.038,6.074c-3.174-3.001-8.138-3.001-11.312,0L324.47,51.33
			c-3.123,3.124-3.123,8.188,0,11.312l5.656,5.656l-3.864,3.872c-18.201,3.38-34.943,12.22-48,25.344l-24.568,24.616l-13.768-13.768
			c-15.955-16.04-37.664-25.031-60.288-24.968h-21.256l-8.968-8.968l5.656-5.656c3.123-3.124,3.123-8.188,0-11.312l-45.256-45.28
			c-3.124-3.123-8.188-3.123-11.312,0l-96.16,96.16c-3.123,3.124-3.123,8.188,0,11.312l45.248,45.256
			c3.124,3.123,8.188,3.123,11.312,0l5.656-5.656l3.872,3.872c3.389,18.198,12.227,34.938,25.344,48l57.776,57.744v38.864
			c-0.065,22.624,8.93,44.332,24.976,60.28l15.024,15.032v12.688h-8c-4.418,0-8,3.582-8,8v64c0,4.418,3.582,8,8,8h136
			c4.418,0,8-3.582,8-8v-64c0-4.418-3.582-8-8-8h-8v-5.472c10.46-15.261,16.039-33.338,16-51.84v-48.4
			c5.217-0.618,10.076-2.967,13.8-6.672l39.688-39.688c15.938-16.021,24.913-37.682,24.976-60.28V162.13l8.968-8.976l5.656,5.664
			c3.124,3.123,8.188,3.123,11.312,0l45.256-45.256C480.332,110.439,480.335,105.374,477.213,102.248z M58.902,142.282l-5.656,5.656
			L19.31,113.994l84.848-84.848l33.944,33.944l-5.648,5.648L58.902,142.282z M105.086,199.778
			c-11.36-11.311-18.822-25.947-21.304-41.784c-0.266-1.667-1.053-3.207-2.248-4.4l-5.656-5.656l31.112-31.112l31.112-31.112
			l11.312,11.312c1.5,1.5,3.534,2.344,5.656,2.344h24.568c18.379-0.053,36.015,7.25,48.976,20.28l13.768,13.776l-11.32,11.312
			l-13.768-13.768c-3.124-3.133-8.195-3.14-11.328-0.016c-3.133,3.124-3.14,8.195-0.016,11.328l13.768,13.768l-31.136,31.136
			c-4.499,4.482-7.007,10.585-6.96,16.936c0.064,9.578,5.787,18.211,14.584,22c-3.004,5.052-3.987,11.053-2.752,16.8l-24.568-24.568
			c-3.069-3.178-8.134-3.266-11.312-0.197c-3.178,3.069-3.266,8.134-0.197,11.312c0.064,0.067,0.13,0.132,0.197,0.197l31.32,31.32
			c1.483,1.484,2.305,3.503,2.28,5.6c-0.044,4.419-3.629,7.983-8.048,8c-2.101,0.133-4.147-0.704-5.552-2.272L105.086,199.778z
			 M311.55,459.73h-120v-48h120V459.73z M311.55,338.418c0.036,16.033-5.035,31.66-14.48,44.616c-0.989,1.366-1.521,3.01-1.52,4.696
			v8h-88v-16c0-2.122-0.844-4.156-2.344-5.656l-17.368-17.376c-13.031-12.958-20.337-30.591-20.288-48.968v-23.088
			c4.304,3.779,9.824,5.883,15.552,5.928h0.128c13.228-0.066,23.934-10.772,24-24c-0.029-2.528-0.464-5.034-1.288-7.424
			c3.031,1.606,6.375,2.534,9.8,2.72c0.661,12.208,10.394,21.969,22.6,22.664c0.697,12.69,11.139,22.653,23.848,22.752h0.088
			c6.322,0.026,12.391-2.484,16.848-6.968l23.744-23.784c1.92,4.044,4.925,7.476,8.68,9.912V338.418z M392.35,153.154
			c-1.5,1.5-2.344,3.534-2.344,5.656v24.568c-0.054,18.357-7.344,35.952-20.288,48.968l-39.688,39.688
			c-1.465,1.467-3.455,2.288-5.528,2.28c-4.4-0.043-7.957-3.6-8-8c-0.027-2.096,0.792-4.115,2.272-5.6l0.048-0.048l39.648-39.64
			c3.07-3.178,2.982-8.243-0.196-11.312c-3.1-2.994-8.015-2.994-11.116,0l-28.28,28.28l-11.36,11.36l-39.64,39.64
			c-1.467,1.468-3.46,2.289-5.536,2.28c-4.398-0.048-7.952-3.602-8-8c-0.022-2.098,0.803-4.117,2.288-5.6l51-51
			c3.069-3.178,2.982-8.242-0.196-11.312c-3.1-2.994-8.015-2.994-11.116,0l-51,51c-1.465,1.467-3.455,2.288-5.528,2.28
			c-4.397-0.052-7.948-3.603-8-8c-0.028-2.098,0.794-4.118,2.28-5.6l51.008-51c3.124-3.126,3.122-8.192-0.004-11.316
			c-3.126-3.124-8.192-3.122-11.316,0.004l-51.2,51c-1.461,1.466-3.45,2.285-5.52,2.272h-0.048c-4.4-0.043-7.957-3.6-8-8
			c-0.005-2.079,0.815-4.076,2.28-5.552l51-51.008c3.124-3.13,3.118-8.2-0.012-11.324c-3.13-3.124-8.2-3.118-11.324,0.012
			l-34.464,34.464l-5.208,5.216c-1.467,1.464-3.456,2.285-5.528,2.28c-4.4-0.043-7.957-3.6-8-8c-0.031-2.097,0.789-4.117,2.272-5.6
			l89.68-89.672c11.309-11.36,25.941-18.825,41.776-21.312c1.667-0.266,3.207-1.053,4.4-2.248l5.656-5.656l62.232,62.232
			L392.35,153.154z M426.286,141.842l-84.848-84.856l33.944-33.944l84.856,84.856L426.286,141.842z"/>
	</g>
</g>
<g>
</g>
<g>
</g>
<g>
</g>
<g>
</g>
<g>
</g>
<g>
</g>
<g>
</g>
<g>
</g>
<g>
</g>
<g>
</g>
<g>
</g>
<g>
</g>
<g>
</g>
<g>
</g>
<g>
</g>
</svg>
