<?xml version="1.0" encoding="UTF-8" standalone="no"?>
<svg
   xmlns:dc="http://purl.org/dc/elements/1.1/"
   xmlns:cc="http://creativecommons.org/ns#"
   xmlns:rdf="http://www.w3.org/1999/02/22-rdf-syntax-ns#"
   xmlns:svg="http://www.w3.org/2000/svg"
   xmlns="http://www.w3.org/2000/svg"
   xmlns:sodipodi="http://sodipodi.sourceforge.net/DTD/sodipodi-0.dtd"
   xmlns:inkscape="http://www.inkscape.org/namespaces/inkscape"
   id="Layer_1"
   enable-background="new 0 0 512 512"
   height="512"
   viewBox="0 0 512 512"
   width="512"
   version="1.1"
   sodipodi:docname="videoconference.svg"
   inkscape:version="1.0 (4035a4fb49, 2020-05-01)">
  <metadata
     id="metadata220">
    <rdf:RDF>
      <cc:Work
         rdf:about="">
        <dc:format>image/svg+xml</dc:format>
        <dc:type
           rdf:resource="http://purl.org/dc/dcmitype/StillImage" />
      </cc:Work>
    </rdf:RDF>
  </metadata>
  <defs
     id="defs218" />
  <sodipodi:namedview
     inkscape:document-rotation="0"
     pagecolor="#ffffff"
     bordercolor="#666666"
     borderopacity="1"
     objecttolerance="10"
     gridtolerance="10"
     guidetolerance="10"
     inkscape:pageopacity="0"
     inkscape:pageshadow="2"
     inkscape:window-width="1920"
     inkscape:window-height="1001"
     id="namedview216"
     showgrid="false"
     inkscape:zoom="0.9983453"
     inkscape:cx="256"
     inkscape:cy="249.1529"
     inkscape:window-x="-9"
     inkscape:window-y="-9"
     inkscape:window-maximized="1"
     inkscape:current-layer="g181" />
  <g
     id="g213">
    <g
       id="g181">
      <path
         d="m315.908 504.509h-119.816l19.694-64.27h80.428z"
         fill="#90abbd"
         id="path159" />
      <path
         d="m512 108.066v286.23c0 29.466-23.95 53.438-53.38 53.438h-405.24c-29.43 0-53.38-23.972-53.38-53.438v-286.23c0-29.466 23.95-53.438 53.38-53.438h405.24c29.43-.001 53.38 23.971 53.38 53.438z"
         fill="#56788b"
         id="path161" />
      <path
         d="m512 108.066v286.23c0 29.466-23.95 53.438-53.38 53.438h-20c29.43 0 53.38-23.972 53.38-53.438v-286.23c0-29.466-23.95-53.438-53.38-53.438h20c29.43-.001 53.38 23.971 53.38 53.438z"
         fill="#415e6f"
         id="path163" />
      <path
         style="fill:#5599ff"
         d="m482.08 106.827v257.743c0 13.085-10.64 23.733-23.72 23.733h-404.72c-13.08 0-23.72-10.648-23.72-23.733v-257.743c0-13.085 10.64-23.733 23.72-23.733h404.72c13.08 0 23.72 10.648 23.72 23.733z"
         fill="#d9f0f4"
         id="path165" />
      <path
         style="fill:#2a7fff"
         d="m482.08 106.827v257.743c0 13.085-10.64 23.733-23.72 23.733h-20c13.08 0 23.72-10.648 23.72-23.733v-257.743c0-13.085-10.64-23.733-23.72-23.733h20c13.08 0 23.72 10.648 23.72 23.733z"
         fill="#bae1e5"
         id="path167" />
      <path
         d="m354.717 497.017h-197.434c-4.142 0-7.5 3.354-7.5 7.491s3.358 7.491 7.5 7.491h197.434c4.142 0 7.5-3.354 7.5-7.491s-3.358-7.491-7.5-7.491z"
         fill="#56788b"
         id="path169" />
      <g
         fill="#415e6f"
         id="g175">
        <path
           d="m94.694 411.054h-30.639c-4.142 0-7.5 3.354-7.5 7.491s3.358 7.491 7.5 7.491h30.639c4.142 0 7.5-3.354 7.5-7.491s-3.358-7.491-7.5-7.491z"
           id="path171" />
        <path
           d="m154.694 411.054h-30.639c-4.142 0-7.5 3.354-7.5 7.491s3.358 7.491 7.5 7.491h30.639c4.142 0 7.5-3.354 7.5-7.491s-3.358-7.491-7.5-7.491z"
           id="path173" />
      </g>
    </g>
    <path
       d="m 267.06374,69.109278 c 0,6.472994 -5.29519,11.740602 -11.80463,11.740602 -0.65829,0 -1.30305,-0.05381 -1.93044,-0.159322 -5.59634,-0.917684 -9.87613,-5.762677 -9.87613,-11.58128 0,-5.818604 4.27979,-10.663596 9.87613,-11.581281 0.62739,-0.10551 1.27215,-0.159322 1.93044,-0.159322 6.50944,0 11.80463,5.267416 11.80463,11.740603 z"
       fill="#4dd4f7"
       id="path183"
       style="stroke-width:0.192614"
       inkscape:transform-center-x="-0.49943207"
       inkscape:transform-center-y="1.0420985" />
    <path
       d="m 267.06374,69.109278 c 0,6.472994 -5.29519,11.740602 -11.80463,11.740602 -0.65829,0 -1.30305,-0.05381 -1.93044,-0.159322 5.59441,-0.917684 9.8742,-5.762677 9.8742,-11.58128 0,-5.818604 -4.27979,-10.663596 -9.8742,-11.581281 0.62739,-0.10551 1.27215,-0.159322 1.93044,-0.159322 6.50944,0 11.80463,5.267416 11.80463,11.740603 z"
       fill="#00c2f3"
       id="path185"
       style="stroke-width:0.192614"
       inkscape:transform-center-x="-5.4374971"
       inkscape:transform-center-y="1.0420985" />
    <path
       d="m 255.25815,63.797852 c -2.94508,0 -5.34115,2.382713 -5.34115,5.311426 0,2.928712 2.39607,5.311426 5.34115,5.311426 2.94526,0 5.34132,-2.382714 5.34132,-5.311426 0,-2.928713 -2.39606,-5.311426 -5.34132,-5.311426 z"
       fill="#56788b"
       id="path187"
       style="stroke-width:0.192614"
       inkscape:transform-center-x="-0.49952707"
       inkscape:transform-center-y="1.042099" />
    <g
       id="g195">
      <path
         d="m183.94 235.109c0 17.08-7.76 32.383-19.95 42.571-9.65 8.081-22.08 12.945-35.63 12.945s-25.98-4.864-35.63-12.945c-12.19-10.188-19.95-25.491-19.95-42.571 0-30.615 24.93-55.516 55.58-55.516 30.64 0 55.58 24.901 55.58 55.516z"
         fill="#fff"
         id="path189" />
      <path
         d="m163.99 274.054v3.626c-9.65 8.081-22.08 12.945-35.63 12.945s-25.98-4.864-35.63-12.945v-3.626c0-19.687 15.65-35.11 35.63-35.11 19.98.001 35.63 15.423 35.63 35.11z"
         fill="#ff6b81"
         id="path191" />
      <ellipse
         cx="128.358"
         cy="231.451"
         fill="#fdd9b4"
         rx="22.5"
         ry="22.474"
         id="ellipse193" />
    </g>
    <g
       id="g203">
      <path
         d="m311.455 235.109c0 17.08-7.76 32.383-19.95 42.571-9.65 8.081-22.08 12.945-35.63 12.945s-25.98-4.864-35.63-12.945c-12.19-10.188-19.95-25.491-19.95-42.571 0-30.615 24.93-55.516 55.58-55.516 30.64 0 55.58 24.901 55.58 55.516z"
         fill="#fff"
         id="path197" />
      <path
         d="m291.505 274.054v3.626c-9.65 8.081-22.08 12.945-35.63 12.945s-25.98-4.864-35.63-12.945v-3.626c0-19.687 15.65-35.11 35.63-35.11 19.98.001 35.63 15.423 35.63 35.11z"
         fill="#09eaa3"
         id="path199" />
      <ellipse
         cx="255.873"
         cy="231.451"
         fill="#fdd9b4"
         rx="22.5"
         ry="22.474"
         id="ellipse201" />
    </g>
    <g
       id="g211">
      <path
         d="m438.972 235.109c0 17.08-7.76 32.383-19.95 42.571-9.65 8.081-22.08 12.945-35.63 12.945s-25.98-4.864-35.63-12.945c-12.19-10.188-19.95-25.491-19.95-42.571 0-30.615 24.93-55.516 55.58-55.516 30.64 0 55.58 24.901 55.58 55.516z"
         fill="#fff"
         id="path205" />
      <path
         d="m419.022 274.054v3.626c-9.65 8.081-22.08 12.945-35.63 12.945s-25.98-4.864-35.63-12.945v-3.626c0-19.687 15.65-35.11 35.63-35.11 19.98.001 35.63 15.423 35.63 35.11z"
         fill="#4dd4f7"
         id="path207" />
      <ellipse
         cx="383.39"
         cy="231.451"
         fill="#fdd9b4"
         rx="22.5"
         ry="22.474"
         id="ellipse209" />
    </g>
  </g>
</svg>
