<svg id="Layer_1" enable-background="new 0 0 512.197 512.197" height="512" viewBox="0 0 512.197 512.197" width="512" xmlns="http://www.w3.org/2000/svg"><path d="m463.177.55h-414.156c-27.031 0-49.021 21.99-49.021 49.021v309.189c0 27.03 21.99 49.021 49.021 49.021h122.792l-11.587 73.79h-22.777c-8.284 0-15 6.716-15 15s6.716 15 15 15c50.258.114 187.28.089 237.299 0 8.284 0 15-6.716 15-15s-6.716-15-15-15h-24.831l-10.4-73.79h123.66c27.03 0 49.021-21.99 49.021-49.021v-309.189c-.001-27.031-21.991-49.021-49.021-49.021zm19.02 49.021v139.595h-36.643c-3.547-18.179-14.834-33.615-30.283-42.736 5.563-7.988 8.837-17.684 8.837-28.134 0-27.218-22.143-49.361-49.36-49.361s-49.361 22.144-49.361 49.361c0 10.451 3.274 20.146 8.837 28.134-15.448 9.121-26.736 24.556-30.283 42.736h-32.842v-158.616h192.078c10.488 0 19.02 8.532 19.02 19.021zm-106.312 88.027h-2.274c-10.146-.594-18.224-9.011-18.224-19.303 0-10.676 8.686-19.361 19.361-19.361s19.36 8.686 19.36 19.361c0 10.292-8.077 18.709-18.223 19.303zm-9.329 30c4.618.011 10.668.026 16.384 0 14.326 0 26.6 8.958 31.514 21.567h-79.411c4.913-12.609 17.186-21.567 31.513-21.567zm-317.535-137.048h192.078v158.615h-33.482c-3.547-18.179-14.835-33.615-30.283-42.736 5.563-7.988 8.837-17.684 8.837-28.134 0-27.218-22.143-49.361-49.36-49.361s-49.361 22.144-49.361 49.361c0 10.451 3.274 20.146 8.837 28.134-15.448 9.121-26.736 24.556-30.283 42.736h-36.004v-139.594c0-10.489 8.532-19.021 19.021-19.021zm88.926 107.048h-2.274c-10.146-.594-18.224-9.011-18.224-19.303 0-10.676 8.686-19.361 19.361-19.361s19.36 8.686 19.36 19.361c0 10.292-8.078 18.709-18.223 19.303zm-9.33 30c4.618.011 10.668.026 16.384 0 14.326 0 26.6 8.958 31.514 21.567h-79.411c4.914-12.609 17.187-21.567 31.513-21.567zm-98.617 191.162v-139.595h211.099v158.615h-33.482c-3.547-18.18-14.835-33.615-30.283-42.736 5.563-7.988 8.837-17.684 8.837-28.135 0-27.218-22.143-49.36-49.36-49.36s-49.361 22.143-49.361 49.36c0 10.451 3.274 20.146 8.837 28.135-15.449 9.121-26.736 24.556-30.283 42.736h-16.983c-10.489.001-19.021-8.532-19.021-19.02zm105.672-32.547c-10.146-.594-18.224-9.012-18.224-19.304 0-10.676 8.686-19.36 19.361-19.36s19.36 8.685 19.36 19.36c0 10.292-8.078 18.71-18.223 19.304zm-7.055 30c4.618.011 10.668.026 16.384 0 14.326 0 26.601 8.959 31.514 21.567h-79.411c4.913-12.608 17.187-21.567 31.513-21.567zm61.976 125.358 11.586-73.79h107.04l10.4 73.79zm144.449-103.79c4.913-12.608 17.188-21.567 31.514-21.567 4.618.011 10.668.026 16.384 0 14.326 0 26.601 8.959 31.514 21.567zm40.843-51.568h-2.274c-10.146-.594-18.224-9.012-18.224-19.304 0-10.676 8.686-19.36 19.361-19.36s19.36 8.685 19.36 19.36c0 10.293-8.077 18.711-18.223 19.304zm87.292 51.568h-17.622c-3.547-18.18-14.834-33.615-30.283-42.736 5.563-7.988 8.837-17.684 8.837-28.135 0-27.218-22.143-49.36-49.36-49.36s-49.361 22.143-49.361 49.36c0 10.451 3.274 20.146 8.837 28.135-15.449 9.121-26.736 24.556-30.283 42.736h-32.842v-158.616h211.099v139.595c-.002 10.488-8.534 19.021-19.022 19.021z"/></svg>